<svg version="1.1" id="Layer_1" xmlns="http://www.w3.org/2000/svg" xmlns:xlink="http://www.w3.org/1999/xlink" x="0px" y="0px"
	 width="100%" viewBox="0 0 290 174" enable-background="new 0 0 290 174" xml:space="preserve">
<path fill="#FCFCFC" opacity="1.000000" stroke="none" 
	d="
M1.000000,109.000000 
	C1.000000,73.079712 1.000000,37.159428 1.000000,1.000000 
	C30.687134,1.000000 60.374908,1.000000 90.402267,1.316376 
	C88.567101,4.585946 85.336639,7.237075 84.391022,10.541959 
	C78.771309,30.182732 73.657440,49.968719 68.421715,69.718666 
	C65.962372,78.995697 70.019150,84.222153 79.662483,84.226799 
	C118.288773,84.245399 156.915085,84.243889 195.541382,84.230095 
	C202.919418,84.227455 205.805054,82.065895 207.684464,75.043388 
	C212.880463,55.628181 218.038681,36.202808 223.176178,16.772020 
	C225.400375,8.359735 224.617996,6.089786 218.000000,1.000000 
	C242.276871,1.000000 266.553741,1.000000 291.000000,1.000000 
	C291.000000,39.354061 291.000000,77.708374 290.750458,116.814728 
	C288.361755,118.291252 286.222626,119.015732 284.385254,119.638008 
	C283.128265,119.061699 281.798340,118.451950 279.955658,117.607101 
	C279.955658,125.019890 280.034790,131.486374 279.923492,137.949585 
	C279.864685,141.364822 281.529633,141.212006 284.074036,140.390427 
	C284.074036,137.387054 284.293396,134.557358 284.027649,131.773972 
	C283.499725,126.244125 284.002075,121.574150 291.000000,121.000000 
	C291.000000,138.971939 291.000000,156.943878 291.000000,175.000000 
	C215.645798,175.000000 140.291550,175.000000 64.486732,174.542908 
	C64.036148,170.128723 64.036148,166.171616 64.036148,162.214523 
	C63.494423,162.157104 62.952694,162.099686 62.410969,162.042282 
	C61.489483,166.252884 62.119610,170.678360 62.000000,175.000000 
	C41.760761,175.000000 21.521519,175.000000 1.000000,175.000000 
	C1.000000,163.980713 1.000000,152.959015 1.463466,141.401230 
	C6.251996,140.860641 10.588669,141.027100 14.894185,140.734726 
	C16.008720,140.659042 17.025612,139.145493 18.087357,138.292404 
	C17.774977,137.810287 17.462599,137.328156 17.150219,136.846039 
	C13.236814,136.846039 9.323408,136.846039 5.538912,136.846039 
	C5.538912,133.004959 5.538912,129.627090 5.538912,125.920013 
	C8.876162,125.920013 11.827316,125.920013 15.686775,125.920013 
	C13.292696,120.224113 8.101369,124.372169 5.515570,121.983887 
	C5.515570,119.045662 5.515570,116.159775 5.515570,112.995071 
	C9.497018,112.995071 13.118300,112.995071 16.739582,112.995071 
	C16.982494,112.523354 17.225407,112.051636 17.468321,111.579918 
	C16.286095,110.837479 15.150368,109.557007 13.913222,109.450081 
	C9.627856,109.079735 5.307216,109.117538 1.000000,109.000000 
M97.971466,162.491104 
	C97.848335,162.229630 97.725204,161.968155 97.602066,161.706680 
	C97.715561,162.151764 97.829063,162.596848 98.223343,163.541046 
	C98.752434,163.445175 99.282646,163.354202 99.806335,163.234680 
	C99.826225,163.230133 99.776405,162.816315 99.770340,162.816605 
	C99.197449,162.845505 98.625641,162.896149 97.971466,162.491104 
M67.711349,171.016083 
	C68.204552,170.397232 68.697762,169.778381 69.643250,168.643768 
	C69.463585,167.407364 69.283920,166.170944 69.064896,164.323883 
	C68.824699,163.785065 68.584496,163.246246 68.344292,162.707428 
	C67.998344,163.009109 67.652397,163.310791 67.306450,163.612473 
	C67.822502,164.117798 68.338554,164.623108 68.920181,165.860733 
	C68.894585,166.846451 68.868980,167.832153 68.247734,168.984711 
	C67.782745,169.602509 67.317749,170.220306 66.378242,170.952316 
	C66.122025,171.119629 65.865799,171.286942 65.609581,171.454254 
	C66.100113,171.342285 66.590645,171.230316 67.711349,171.016083 
M204.264496,169.025436 
	C202.526871,168.993912 200.789230,168.962402 198.902054,168.669403 
	C198.804199,168.629089 198.706329,168.588776 198.608475,168.548447 
	C198.712509,168.718903 198.816544,168.889374 199.040009,169.778275 
	C201.510071,173.384399 203.530884,173.191330 205.346207,168.908722 
	C205.383728,168.808578 205.421249,168.708435 205.458771,168.608292 
	C205.286575,168.712891 205.114380,168.817490 204.264496,169.025436 
M246.261551,169.022598 
	C244.531479,168.982620 242.801422,168.942642 240.908997,168.626175 
	C240.799622,168.589218 240.690231,168.552261 240.580856,168.515305 
	C240.686356,168.702209 240.791855,168.889099 241.033051,169.790817 
	C243.506882,173.362061 245.537552,173.205200 247.358704,168.912338 
	C247.395096,168.809067 247.431473,168.705811 247.467850,168.602554 
	C247.290771,168.706650 247.113678,168.810760 246.261551,169.022598 
M96.284492,171.610062 
	C96.960365,171.688354 97.636238,171.766647 98.312119,171.844955 
	C98.337456,171.616455 98.362793,171.387955 98.388130,171.159454 
	C97.625969,171.069138 96.863800,170.978821 96.054543,170.024078 
	C96.054543,167.556152 96.054543,165.088226 96.054543,162.620316 
	C92.720558,165.668808 91.555016,168.574234 96.284492,171.610062 
M51.025757,164.255692 
	C50.248264,164.062744 49.470772,163.869797 48.693279,163.676865 
	C48.635288,164.076584 48.577297,164.476318 48.519306,164.876038 
	C49.309246,164.958862 50.099182,165.041672 51.048439,165.784424 
	C52.180634,167.000946 53.312828,168.217453 54.633015,169.635971 
	C55.059944,167.343399 55.362823,165.716965 55.665703,164.090530 
	C56.171551,164.072327 56.677402,164.054108 57.183250,164.035889 
	C57.620712,165.869095 58.058174,167.702286 58.575676,169.870895 
	C61.843987,167.640854 61.336922,164.832184 59.306168,163.182968 
	C58.107971,162.209885 55.318951,163.030090 53.287971,163.331223 
	C52.498508,163.448273 51.826279,164.356033 51.025757,164.255692 
M190.054184,137.242142 
	C190.054184,127.984055 190.054184,118.725967 190.054184,108.206474 
	C182.871124,111.867355 187.696686,117.976761 185.049011,121.900833 
	C181.914581,121.900833 178.502289,121.900833 174.675247,121.900833 
	C174.675247,119.062614 174.687073,116.444298 174.672684,113.826126 
	C174.646027,108.973000 174.639633,108.973038 170.395126,110.152367 
	C170.395126,120.284241 170.395126,130.394882 170.395126,140.597809 
	C171.864120,140.597809 173.092758,140.597809 174.862000,140.597809 
	C174.862000,135.619522 174.862000,130.900360 174.862000,126.372566 
	C178.809021,126.372566 182.203720,126.372566 185.935669,126.372566 
	C185.935669,131.322327 185.935669,135.929092 185.935669,140.535873 
	C186.365173,140.819382 186.794693,141.102905 187.224197,141.386414 
	C188.167236,140.319992 189.110291,139.253571 190.054184,137.242142 
M44.743614,123.568977 
	C44.791500,127.674171 44.442249,131.834122 44.998608,135.869202 
	C45.558609,139.930725 48.605751,141.655975 52.648705,141.216873 
	C55.654236,140.890427 58.634979,140.335785 61.771477,139.860855 
	C61.771477,129.653305 61.771477,118.904686 61.771477,107.335785 
	C54.640293,109.618050 60.020645,115.802277 57.355587,118.889832 
	C49.979866,116.167488 47.830402,116.832420 44.743614,123.568977 
M211.698349,136.136169 
	C211.698334,132.973358 211.706192,129.810501 211.696777,126.647728 
	C211.671341,118.102570 207.549347,115.199409 199.568161,118.279945 
	C198.455048,118.709564 197.704285,120.077934 196.785782,121.011757 
	C198.115646,121.227036 199.570541,121.901451 200.754028,121.579178 
	C206.278885,120.074738 207.535126,120.860359 207.193420,126.411972 
	C205.130295,126.611534 202.973282,126.623817 200.905670,127.059982 
	C196.214417,128.049591 194.079742,132.310120 195.703827,137.096008 
	C196.994629,140.899780 200.930252,142.436356 205.126526,140.770401 
	C206.075165,140.393799 207.465286,139.394196 207.893311,139.709961 
	C212.125916,142.832687 211.633820,139.590912 211.698349,136.136169 
M96.390556,130.238586 
	C97.276390,129.791641 98.755455,129.523560 98.952827,128.869019 
	C100.349220,124.238068 96.941803,118.445099 92.524994,117.577713 
	C86.879494,116.469025 82.702065,119.409981 81.949265,125.248924 
	C81.653923,127.539680 81.219727,130.124313 81.968010,132.164627 
	C83.084450,135.208771 84.542480,139.056961 87.034348,140.442810 
	C90.505730,142.373413 95.021172,142.131302 99.405830,137.307007 
	C97.018715,137.149857 95.669113,136.683533 94.611923,137.053284 
	C88.253273,139.277283 85.675308,137.241470 86.530563,130.239227 
	C89.480148,130.239227 92.458923,130.239227 96.390556,130.238586 
M221.424835,124.665176 
	C220.537018,122.449242 223.522415,117.960304 217.660904,117.832100 
	C217.660904,124.209427 217.681519,129.862259 217.653854,135.514832 
	C217.634445,139.483871 219.730759,141.491455 223.524307,141.239548 
	C226.862503,141.017868 230.160965,140.198074 233.909409,139.569977 
	C233.909409,133.794373 233.811951,127.312630 233.948196,120.835815 
	C234.022659,117.296249 232.315308,117.636513 229.895248,118.436943 
	C229.895248,123.310394 229.787033,127.964256 229.928619,132.610504 
	C230.047089,136.497864 227.244659,137.561707 224.502502,137.603287 
	C223.500015,137.618484 221.924042,134.802429 221.554291,133.075729 
	C221.043121,130.688599 221.425217,128.110214 221.424835,124.665176 
M275.006042,129.562256 
	C274.996948,128.067856 275.171448,126.544907 274.944275,125.084442 
	C274.266724,120.729141 272.196747,117.630966 267.314423,117.370819 
	C262.408844,117.109428 259.013733,119.637726 258.127563,124.596642 
	C257.722534,126.863083 257.775635,129.239761 257.856415,131.558228 
	C257.989380,135.372543 258.895966,139.132263 262.861572,140.543335 
	C266.854492,141.964142 271.012939,142.027115 275.438049,137.622375 
	C273.298859,137.282852 271.927429,136.623749 270.899872,136.973846 
	C264.312592,139.218246 261.951843,137.510864 262.395691,130.169357 
	C266.339600,130.169357 270.313843,130.169357 275.006042,129.562256 
M26.645998,139.899368 
	C26.681715,135.080215 26.232512,130.181244 27.005827,125.483498 
	C27.291668,123.747086 30.454020,122.484184 32.304455,121.005325 
	C33.165070,122.479164 34.674332,123.913139 34.767807,125.434128 
	C35.080322,130.519196 34.886303,135.635376 34.886303,140.739639 
	C35.404438,140.988174 35.922573,141.236710 36.440708,141.485245 
	C37.299095,140.428421 38.845333,139.404953 38.898510,138.309052 
	C39.147942,133.168625 39.096371,128.004913 38.937859,122.856110 
	C38.808411,118.651344 36.299248,116.945801 32.283718,117.519867 
	C29.295107,117.947121 26.343676,118.634430 22.758223,119.324821 
	C22.758223,124.928856 22.838570,131.553345 22.719568,138.174225 
	C22.670418,140.908752 23.937164,141.246948 26.645998,139.899368 
M130.238205,117.411858 
	C126.356194,117.286102 122.721352,117.765671 121.924622,122.478760 
	C121.098030,127.368446 123.823944,129.860352 128.253769,130.967545 
	C128.894135,131.127594 129.808167,131.159805 130.094345,131.586960 
	C130.924042,132.825378 132.068466,134.276627 131.974045,135.562439 
	C131.910446,136.428329 129.952896,137.809494 128.846436,137.805832 
	C126.657616,137.798630 124.471443,136.991470 121.562538,136.357834 
	C121.699753,137.499771 121.721420,139.650497 121.997986,139.683777 
	C125.656776,140.124222 129.503723,140.944016 132.965302,140.165192 
	C134.438324,139.833786 135.753815,136.075439 136.027649,133.743744 
	C136.505295,129.676437 133.289902,128.075729 129.957916,127.076279 
	C127.688065,126.395409 124.812943,125.870064 125.964745,122.831848 
	C126.381348,121.732948 129.460022,121.633545 131.329849,121.098625 
	C132.601883,120.734711 133.884171,120.406509 135.161865,120.062340 
	C135.037888,119.537514 134.913895,119.012688 134.789902,118.487862 
	C133.533096,118.169708 132.276291,117.851555 130.238205,117.411858 
M239.032455,139.270844 
	C239.751266,139.664688 240.432587,140.163605 241.194870,140.435699 
	C247.114059,142.548508 252.246002,141.152863 253.673264,137.086960 
	C255.315323,132.409149 253.190598,129.524445 246.626511,126.749313 
	C245.237228,126.161949 244.350800,124.385185 243.232666,123.156433 
	C244.847183,122.426605 246.400391,121.387932 248.093094,121.051849 
	C249.865952,120.699837 252.905518,123.340172 252.536209,118.802109 
	C246.083069,116.336143 241.525497,117.197533 239.937271,121.173531 
	C238.199081,125.524895 240.213409,128.364410 247.069397,131.238251 
	C247.528061,131.430511 248.175293,131.540649 248.382858,131.895096 
	C249.000992,132.950653 249.968781,134.193924 249.805649,135.203156 
	C249.645370,136.194824 248.343918,137.619278 247.406342,137.733902 
	C245.689178,137.943802 243.861923,137.080383 242.098572,137.146317 
	C240.934143,137.189835 239.801163,138.074799 239.032455,139.270844 
M102.976868,137.123917 
	C103.154556,138.043533 103.110878,139.624969 103.547333,139.770950 
	C105.714706,140.495895 107.996414,141.162537 110.260780,141.248993 
	C113.853294,141.386124 116.943718,140.227615 117.565529,136.057739 
	C118.176910,131.957870 116.881538,128.851532 112.603607,127.523666 
	C111.338821,127.131073 109.893356,126.927498 108.904060,126.157562 
	C108.020874,125.470200 107.054047,124.005249 107.229538,123.097046 
	C107.397667,122.227020 108.933670,121.139969 109.965416,121.026054 
	C111.702080,120.834305 113.515442,121.337196 115.804611,121.607994 
	C115.804611,120.561760 115.920311,118.662636 115.787598,118.645111 
	C112.900139,118.263901 109.750755,117.337112 107.156532,118.142082 
	C105.388672,118.690643 103.270851,121.758186 103.339409,123.624855 
	C103.419205,125.797707 105.516190,128.059479 107.135887,129.939713 
	C107.876099,130.799011 109.825127,130.532440 110.767822,131.322845 
	C112.006775,132.361664 112.793953,133.939301 113.775398,135.285233 
	C112.217155,136.165802 110.711678,137.625549 109.086716,137.773590 
	C107.247139,137.941147 105.300385,136.932144 102.976868,137.123917 
M69.269012,117.995537 
	C68.990799,118.147575 68.471756,118.295433 68.469048,118.452248 
	C68.351593,125.229012 68.163239,132.009689 68.343498,138.780289 
	C68.367279,139.673615 70.300743,140.516098 72.329277,142.190781 
	C72.329277,136.801804 72.603714,133.146729 72.263046,129.549896 
	C71.787254,124.526291 73.143181,121.389549 78.912018,121.821510 
	C78.912018,120.278351 78.912018,119.034866 78.912018,117.080452 
	C76.418427,118.157822 74.393387,119.032753 72.494614,119.853127 
	C71.740227,119.249023 70.923103,118.594673 69.269012,117.995537 
M154.133804,119.947716 
	C153.241592,119.066422 152.349365,118.185127 150.545227,116.403076 
	C150.347931,120.723946 150.237946,123.132362 150.115234,125.819702 
	C148.236206,125.819702 146.722565,125.617989 145.303391,125.896896 
	C144.478958,126.058937 143.806168,126.992607 143.065125,127.579041 
	C143.872467,128.097244 144.627457,128.912567 145.499054,129.066193 
	C146.917633,129.316208 148.412460,129.133636 149.406662,129.133636 
	C151.749695,131.576981 148.005737,136.843231 154.334229,137.487808 
	C154.334229,134.157944 154.334229,131.740341 154.334229,129.977798 
	C157.032730,129.108414 159.184448,128.415207 161.336166,127.721992 
	C159.293381,127.061340 157.247467,126.410027 155.211304,125.729553 
	C154.919128,125.631912 154.673981,125.393524 154.127884,125.039062 
	C154.127884,123.737389 154.127884,122.262543 154.133804,119.947716 
M133.121597,162.021362 
	C131.837280,163.007111 130.109512,163.755081 129.412170,165.055573 
	C128.876465,166.054626 129.638779,167.749664 129.823853,169.135193 
	C130.146927,169.057083 130.470001,168.978973 130.793076,168.900864 
	C131.103851,167.286530 131.414627,165.672180 131.725403,164.057831 
	C132.438446,164.176117 133.151489,164.294403 133.864532,164.412689 
	C133.418900,166.934265 132.973282,169.455856 132.288834,173.328842 
	C134.152908,171.282349 136.459457,169.875732 136.418335,168.541412 
	C136.350220,166.329865 134.771332,164.164871 133.121597,162.021362 
M199.560486,162.992203 
	C199.499115,163.602310 199.437759,164.212402 199.376389,164.822510 
	C201.518951,164.822510 203.661514,164.822510 206.328201,164.822510 
	C204.330017,163.142990 203.358643,160.046082 199.560486,162.992203 
M240.726837,165.400452 
	C242.710800,164.738480 244.694763,164.076508 246.678741,163.414536 
	C244.099350,162.468781 241.329453,160.776779 240.726837,165.400452 
M99.092300,168.985413 
	C99.757515,168.038757 100.422729,167.092117 101.087936,166.145462 
	C100.591225,165.864883 100.094521,165.584290 99.597809,165.303696 
	C99.383469,166.283798 99.169128,167.263885 99.092300,168.985413 
z"/>
<path fill="#079AFE" opacity="1.000000" stroke="none" 
	d="
M217.531342,1.000000 
	C224.617996,6.089786 225.400375,8.359735 223.176178,16.772020 
	C218.038681,36.202808 212.880463,55.628181 207.684464,75.043388 
	C205.805054,82.065895 202.919418,84.227455 195.541382,84.230095 
	C156.915085,84.243889 118.288773,84.245399 79.662483,84.226799 
	C70.019150,84.222153 65.962372,78.995697 68.421715,69.718666 
	C73.657440,49.968719 78.771309,30.182732 84.391022,10.541959 
	C85.336639,7.237075 88.567101,4.585946 90.870926,1.316376 
	C133.020889,1.000000 175.041794,1.000000 217.531342,1.000000 
M194.300110,76.358093 
	C197.071289,76.478516 199.729614,76.684593 199.715836,72.563797 
	C199.649017,52.589802 199.727097,32.615131 199.574677,12.642069 
	C199.565201,11.399559 198.075470,9.139726 197.190598,9.097192 
	C190.799637,8.789984 184.387054,8.932454 177.611511,8.932454 
	C177.611511,17.474556 177.611511,25.235479 177.611511,32.933739 
	C175.307983,32.933739 173.408127,32.933739 171.064621,32.933739 
	C171.064621,24.828135 171.064621,17.080122 171.064621,9.230466 
	C163.730927,9.230466 156.853592,9.230466 149.554352,9.230466 
	C149.554352,17.339787 149.554352,25.107075 149.554352,33.311214 
	C145.827423,33.311214 142.516220,33.179047 139.226227,33.385471 
	C138.127655,33.454395 136.373108,34.170418 136.128815,34.963493 
	C134.453888,40.400826 133.100616,45.937244 131.484192,52.044617 
	C137.997879,52.044617 143.593369,52.044617 149.831909,52.044617 
	C149.831909,60.331818 149.831909,68.217445 149.831909,76.062386 
	C157.232544,76.062386 163.971252,76.062386 171.332687,76.062386 
	C171.332687,67.887131 171.332687,60.012581 171.332687,52.311737 
	C173.854797,52.311737 175.741653,52.311737 178.040802,52.311737 
	C178.040802,60.465782 178.040802,68.221359 178.040802,76.378029 
	C183.417343,76.378029 188.377930,76.378029 194.300110,76.358093 
M114.124443,29.669447 
	C115.369011,28.818914 116.581505,27.295097 117.863686,27.234020 
	C123.514275,26.964838 129.189743,27.242203 134.844818,27.025240 
	C136.180023,26.974012 138.314865,26.050129 138.641006,25.055321 
	C140.331070,19.900133 141.553986,14.591800 143.062607,8.870735 
	C126.912437,8.870735 111.278122,8.868807 95.643799,8.872211 
	C92.126289,8.872976 92.312096,11.428794 92.310852,13.794660 
	C92.300697,33.116829 92.354568,52.439251 92.259872,71.760956 
	C92.243179,75.164917 93.368034,76.504074 96.901398,76.436081 
	C106.225716,76.256668 115.555878,76.381615 124.883713,76.383911 
	C130.807297,76.385368 136.730881,76.384186 142.751175,76.384186 
	C142.751175,69.966034 142.751175,64.217583 142.751175,57.863441 
	C133.122711,57.863441 123.738914,57.863441 114.380096,57.863441 
	C114.380096,55.641640 114.380096,54.031055 114.380096,51.987583 
	C118.184799,51.987583 121.791695,51.987583 125.722351,51.987583 
	C127.360031,45.809116 128.910889,39.958206 130.674896,33.303185 
	C125.840141,33.303185 121.723480,33.510742 117.650963,33.178017 
	C116.412437,33.076836 115.295662,31.485491 114.124443,29.669447 
z"/>
<path fill="#0F0F0F" opacity="1.000000" stroke="none" 
	d="
M1.000000,109.468658 
	C5.307216,109.117538 9.627856,109.079735 13.913222,109.450081 
	C15.150368,109.557007 16.286095,110.837479 17.468321,111.579918 
	C17.225407,112.051636 16.982494,112.523354 16.739582,112.995071 
	C13.118300,112.995071 9.497018,112.995071 5.515570,112.995071 
	C5.515570,116.159775 5.515570,119.045662 5.515570,121.983887 
	C8.101369,124.372169 13.292696,120.224113 15.686775,125.920013 
	C11.827316,125.920013 8.876162,125.920013 5.538912,125.920013 
	C5.538912,129.627090 5.538912,133.004959 5.538912,136.846039 
	C9.323408,136.846039 13.236814,136.846039 17.150219,136.846039 
	C17.462599,137.328156 17.774977,137.810287 18.087357,138.292404 
	C17.025612,139.145493 16.008720,140.659042 14.894185,140.734726 
	C10.588669,141.027100 6.251996,140.860641 1.463466,140.932571 
	C1.000000,130.645767 1.000000,120.291542 1.000000,109.468658 
z"/>
<path fill="#060606" opacity="1.000000" stroke="none" 
	d="
M291.000000,120.600006 
	C284.002075,121.574150 283.499725,126.244125 284.027649,131.773972 
	C284.293396,134.557358 284.074036,137.387054 284.074036,140.390427 
	C281.529633,141.212006 279.864685,141.364822 279.923492,137.949585 
	C280.034790,131.486374 279.955658,125.019890 279.955658,117.607101 
	C281.798340,118.451950 283.128265,119.061699 284.385254,119.638008 
	C286.222626,119.015732 288.361755,118.291252 290.750458,117.283386 
	C291.000000,118.066673 291.000000,119.133339 291.000000,120.600006 
z"/>
<path fill="#F3F3F3" opacity="1.000000" stroke="none" 
	d="
M62.333332,175.000000 
	C62.119610,170.678360 61.489483,166.252884 62.410969,162.042282 
	C62.952694,162.099686 63.494423,162.157104 64.036148,162.214523 
	C64.036148,166.171616 64.036148,170.128723 64.018074,174.542908 
	C63.555553,175.000000 63.111111,175.000000 62.333332,175.000000 
z"/>
<path fill="#171717" opacity="1.000000" stroke="none" 
	d="
M190.053757,137.714661 
	C189.110291,139.253571 188.167236,140.319992 187.224197,141.386414 
	C186.794693,141.102905 186.365173,140.819382 185.935669,140.535873 
	C185.935669,135.929092 185.935669,131.322327 185.935669,126.372566 
	C182.203720,126.372566 178.809021,126.372566 174.862000,126.372566 
	C174.862000,130.900360 174.862000,135.619522 174.862000,140.597809 
	C173.092758,140.597809 171.864120,140.597809 170.395126,140.597809 
	C170.395126,130.394882 170.395126,120.284241 170.395126,110.152367 
	C174.639633,108.973038 174.646027,108.973000 174.672684,113.826126 
	C174.687073,116.444298 174.675247,119.062614 174.675247,121.900833 
	C178.502289,121.900833 181.914581,121.900833 185.049011,121.900833 
	C187.696686,117.976761 182.871124,111.867355 190.054184,108.206474 
	C190.054184,118.725967 190.054184,127.984055 190.053757,137.714661 
z"/>
<path fill="#080808" opacity="1.000000" stroke="none" 
	d="
M44.828136,123.168015 
	C47.830402,116.832420 49.979866,116.167488 57.355587,118.889832 
	C60.020645,115.802277 54.640293,109.618050 61.771477,107.335785 
	C61.771477,118.904686 61.771477,129.653305 61.771477,139.860855 
	C58.634979,140.335785 55.654236,140.890427 52.648705,141.216873 
	C48.605751,141.655975 45.558609,139.930725 44.998608,135.869202 
	C44.442249,131.834122 44.791500,127.674171 44.828136,123.168015 
M48.196053,129.495239 
	C48.266788,130.645599 48.241016,131.811859 48.427513,132.943130 
	C48.873100,135.646103 49.448711,138.346405 53.162823,137.928925 
	C56.688713,137.532578 58.400078,135.693481 57.997829,131.963654 
	C57.769245,129.844116 58.486954,127.488029 57.801765,125.591309 
	C57.158291,123.810074 55.412125,121.430031 53.835075,121.160103 
	C47.804298,120.127853 48.750072,125.093803 48.196053,129.495239 
z"/>
<path fill="#161616" opacity="1.000000" stroke="none" 
	d="
M211.698334,136.580536 
	C211.633820,139.590912 212.125916,142.832687 207.893311,139.709961 
	C207.465286,139.394196 206.075165,140.393799 205.126526,140.770401 
	C200.930252,142.436356 196.994629,140.899780 195.703827,137.096008 
	C194.079742,132.310120 196.214417,128.049591 200.905670,127.059982 
	C202.973282,126.623817 205.130295,126.611534 207.193420,126.411972 
	C207.535126,120.860359 206.278885,120.074738 200.754028,121.579178 
	C199.570541,121.901451 198.115646,121.227036 196.785782,121.011749 
	C197.704285,120.077934 198.455048,118.709564 199.568161,118.279945 
	C207.549347,115.199409 211.671341,118.102570 211.696777,126.647728 
	C211.706192,129.810501 211.698334,132.973358 211.698334,136.580536 
M203.199463,138.085953 
	C208.264999,137.174240 208.157944,133.748932 207.081192,128.255692 
	C204.216110,129.989014 201.627319,131.028549 199.950577,132.889755 
	C199.446106,133.449753 201.478958,136.295563 203.199463,138.085953 
z"/>
<path fill="#0E0E0E" opacity="1.000000" stroke="none" 
	d="
M95.914124,130.238907 
	C92.458923,130.239227 89.480148,130.239227 86.530563,130.239227 
	C85.675308,137.241470 88.253273,139.277283 94.611923,137.053284 
	C95.669113,136.683533 97.018715,137.149857 99.405830,137.307007 
	C95.021172,142.131302 90.505730,142.373413 87.034348,140.442810 
	C84.542480,139.056961 83.084450,135.208771 81.968010,132.164627 
	C81.219727,130.124313 81.653923,127.539680 81.949265,125.248924 
	C82.702065,119.409981 86.879494,116.469025 92.524994,117.577713 
	C96.941803,118.445099 100.349220,124.238068 98.952827,128.869019 
	C98.755455,129.523560 97.276390,129.791641 95.914124,130.238907 
M86.181587,126.704079 
	C89.028503,126.905846 91.875420,127.107620 94.722336,127.309387 
	C95.072006,126.746788 95.421669,126.184189 95.771339,125.621582 
	C94.063118,123.897873 92.575737,121.105362 90.595879,120.696243 
	C87.479698,120.052338 86.299103,122.944534 86.181587,126.704079 
z"/>
<path fill="#0C0C0C" opacity="1.000000" stroke="none" 
	d="
M221.424805,125.139465 
	C221.425217,128.110214 221.043121,130.688599 221.554291,133.075729 
	C221.924042,134.802429 223.500015,137.618484 224.502502,137.603287 
	C227.244659,137.561707 230.047089,136.497864 229.928619,132.610504 
	C229.787033,127.964256 229.895248,123.310394 229.895248,118.436943 
	C232.315308,117.636513 234.022659,117.296249 233.948196,120.835815 
	C233.811951,127.312630 233.909409,133.794373 233.909409,139.569977 
	C230.160965,140.198074 226.862503,141.017868 223.524307,141.239548 
	C219.730759,141.491455 217.634445,139.483871 217.653854,135.514832 
	C217.681519,129.862259 217.660904,124.209427 217.660904,117.832100 
	C223.522415,117.960304 220.537018,122.449242 221.424805,125.139465 
z"/>
<path fill="#0E0E0E" opacity="1.000000" stroke="none" 
	d="
M274.647095,129.865814 
	C270.313843,130.169357 266.339600,130.169357 262.395691,130.169357 
	C261.951843,137.510864 264.312592,139.218246 270.899872,136.973846 
	C271.927429,136.623749 273.298859,137.282852 275.438049,137.622375 
	C271.012939,142.027115 266.854492,141.964142 262.861572,140.543335 
	C258.895966,139.132263 257.989380,135.372543 257.856415,131.558228 
	C257.775635,129.239761 257.722534,126.863083 258.127563,124.596642 
	C259.013733,119.637726 262.408844,117.109428 267.314423,117.370819 
	C272.196747,117.630966 274.266724,120.729141 274.944275,125.084442 
	C275.171448,126.544907 274.996948,128.067856 274.647095,129.865814 
M265.699310,120.628975 
	C264.234131,122.430237 262.768921,124.231491 260.501709,127.018730 
	C265.105469,127.018730 267.845032,127.018730 270.707550,127.018730 
	C271.211823,123.398689 270.340729,120.965149 265.699310,120.628975 
z"/>
<path fill="#0F0F0F" opacity="1.000000" stroke="none" 
	d="
M26.376154,140.259125 
	C23.937164,141.246948 22.670418,140.908752 22.719568,138.174225 
	C22.838570,131.553345 22.758223,124.928856 22.758223,119.324821 
	C26.343676,118.634430 29.295107,117.947121 32.283718,117.519867 
	C36.299248,116.945801 38.808411,118.651344 38.937859,122.856110 
	C39.096371,128.004913 39.147942,133.168625 38.898510,138.309052 
	C38.845333,139.404953 37.299095,140.428421 36.440708,141.485245 
	C35.922573,141.236710 35.404438,140.988174 34.886303,140.739639 
	C34.886303,135.635376 35.080322,130.519196 34.767807,125.434128 
	C34.674332,123.913139 33.165070,122.479164 32.304455,121.005325 
	C30.454020,122.484184 27.291668,123.747086 27.005827,125.483498 
	C26.232512,130.181244 26.681715,135.080215 26.376154,140.259125 
z"/>
<path fill="#101010" opacity="1.000000" stroke="none" 
	d="
M130.628845,117.472633 
	C132.276291,117.851555 133.533096,118.169708 134.789902,118.487862 
	C134.913895,119.012688 135.037888,119.537514 135.161865,120.062340 
	C133.884171,120.406509 132.601883,120.734711 131.329849,121.098625 
	C129.460022,121.633545 126.381348,121.732948 125.964745,122.831848 
	C124.812943,125.870064 127.688065,126.395409 129.957916,127.076279 
	C133.289902,128.075729 136.505295,129.676437 136.027649,133.743744 
	C135.753815,136.075439 134.438324,139.833786 132.965302,140.165192 
	C129.503723,140.944016 125.656776,140.124222 121.997986,139.683777 
	C121.721420,139.650497 121.699753,137.499771 121.562538,136.357834 
	C124.471443,136.991470 126.657616,137.798630 128.846436,137.805832 
	C129.952896,137.809494 131.910446,136.428329 131.974045,135.562439 
	C132.068466,134.276627 130.924042,132.825378 130.094345,131.586960 
	C129.808167,131.159805 128.894135,131.127594 128.253769,130.967545 
	C123.823944,129.860352 121.098030,127.368446 121.924622,122.478760 
	C122.721352,117.765671 126.356194,117.286102 130.628845,117.472633 
z"/>
<path fill="#101010" opacity="1.000000" stroke="none" 
	d="
M238.843277,138.926941 
	C239.801163,138.074799 240.934143,137.189835 242.098572,137.146317 
	C243.861923,137.080383 245.689178,137.943802 247.406342,137.733902 
	C248.343918,137.619278 249.645370,136.194824 249.805649,135.203156 
	C249.968781,134.193924 249.000992,132.950653 248.382858,131.895096 
	C248.175293,131.540649 247.528061,131.430511 247.069397,131.238251 
	C240.213409,128.364410 238.199081,125.524895 239.937271,121.173531 
	C241.525497,117.197533 246.083069,116.336143 252.536209,118.802109 
	C252.905518,123.340172 249.865952,120.699837 248.093094,121.051849 
	C246.400391,121.387932 244.847183,122.426605 243.232666,123.156433 
	C244.350800,124.385185 245.237228,126.161949 246.626511,126.749313 
	C253.190598,129.524445 255.315323,132.409149 253.673264,137.086960 
	C252.246002,141.152863 247.114059,142.548508 241.194870,140.435699 
	C240.432587,140.163605 239.751266,139.664688 238.843277,138.926941 
z"/>
<path fill="#111111" opacity="1.000000" stroke="none" 
	d="
M103.188553,136.779327 
	C105.300385,136.932144 107.247139,137.941147 109.086716,137.773590 
	C110.711678,137.625549 112.217155,136.165802 113.775398,135.285233 
	C112.793953,133.939301 112.006775,132.361664 110.767822,131.322845 
	C109.825127,130.532440 107.876099,130.799011 107.135887,129.939713 
	C105.516190,128.059479 103.419205,125.797707 103.339409,123.624855 
	C103.270851,121.758186 105.388672,118.690643 107.156532,118.142082 
	C109.750755,117.337112 112.900139,118.263901 115.787598,118.645111 
	C115.920311,118.662636 115.804611,120.561760 115.804611,121.607994 
	C113.515442,121.337196 111.702080,120.834305 109.965416,121.026054 
	C108.933670,121.139969 107.397667,122.227020 107.229538,123.097046 
	C107.054047,124.005249 108.020874,125.470200 108.904060,126.157562 
	C109.893356,126.927498 111.338821,127.131073 112.603607,127.523666 
	C116.881538,128.851532 118.176910,131.957870 117.565529,136.057739 
	C116.943718,140.227615 113.853294,141.386124 110.260780,141.248993 
	C107.996414,141.162537 105.714706,140.495895 103.547333,139.770950 
	C103.110878,139.624969 103.154556,138.043533 103.188553,136.779327 
z"/>
<path fill="#171717" opacity="1.000000" stroke="none" 
	d="
M69.687500,117.967926 
	C70.923103,118.594673 71.740227,119.249023 72.494614,119.853127 
	C74.393387,119.032753 76.418427,118.157822 78.912018,117.080452 
	C78.912018,119.034866 78.912018,120.278351 78.912018,121.821510 
	C73.143181,121.389549 71.787254,124.526291 72.263046,129.549896 
	C72.603714,133.146729 72.329277,136.801804 72.329277,142.190781 
	C70.300743,140.516098 68.367279,139.673615 68.343498,138.780289 
	C68.163239,132.009689 68.351593,125.229012 68.469048,118.452248 
	C68.471756,118.295433 68.990799,118.147575 69.687500,117.967926 
z"/>
<path fill="#0F0F0F" opacity="1.000000" stroke="none" 
	d="
M154.130844,120.367706 
	C154.127884,122.262543 154.127884,123.737389 154.127884,125.039062 
	C154.673981,125.393524 154.919128,125.631912 155.211304,125.729553 
	C157.247467,126.410027 159.293381,127.061340 161.336166,127.721992 
	C159.184448,128.415207 157.032730,129.108414 154.334229,129.977798 
	C154.334229,131.740341 154.334229,134.157944 154.334229,137.487808 
	C148.005737,136.843231 151.749695,131.576981 149.406662,129.133636 
	C148.412460,129.133636 146.917633,129.316208 145.499054,129.066193 
	C144.627457,128.912567 143.872467,128.097244 143.065125,127.579048 
	C143.806168,126.992607 144.478958,126.058937 145.303391,125.896896 
	C146.722565,125.617989 148.236206,125.819702 150.115234,125.819702 
	C150.237946,123.132362 150.347931,120.723946 150.545227,116.403076 
	C152.349365,118.185127 153.241592,119.066422 154.130844,120.367706 
z"/>
<path fill="#DFDFDF" opacity="1.000000" stroke="none" 
	d="
M133.475250,162.000809 
	C134.771332,164.164871 136.350220,166.329865 136.418335,168.541412 
	C136.459457,169.875732 134.152908,171.282349 132.288834,173.328842 
	C132.973282,169.455856 133.418900,166.934265 133.864532,164.412689 
	C133.151489,164.294403 132.438446,164.176117 131.725403,164.057831 
	C131.414627,165.672180 131.103851,167.286530 130.793076,168.900864 
	C130.470001,168.978973 130.146927,169.057083 129.823853,169.135193 
	C129.638779,167.749664 128.876465,166.054626 129.412170,165.055573 
	C130.109512,163.755081 131.837280,163.007111 133.475250,162.000809 
z"/>
<path fill="#E0E0E0" opacity="1.000000" stroke="none" 
	d="
M51.100639,164.903595 
	C51.826279,164.356033 52.498508,163.448273 53.287971,163.331223 
	C55.318951,163.030090 58.107971,162.209885 59.306168,163.182968 
	C61.336922,164.832184 61.843987,167.640854 58.575676,169.870895 
	C58.058174,167.702286 57.620712,165.869095 57.183250,164.035889 
	C56.677402,164.054108 56.171551,164.072327 55.665703,164.090530 
	C55.362823,165.716965 55.059944,167.343399 54.633015,169.635971 
	C53.312828,168.217453 52.180634,167.000946 51.020378,165.398010 
	C50.992313,165.011581 51.100639,164.903595 51.100639,164.903595 
z"/>
<path fill="#E1E1E1" opacity="1.000000" stroke="none" 
	d="
M95.913475,171.115631 
	C91.555016,168.574234 92.720558,165.668808 96.054543,162.620316 
	C96.054543,165.088226 96.054543,167.556152 96.029816,170.512054 
	C96.005089,171.000031 95.913475,171.115631 95.913475,171.115631 
z"/>
<path fill="#F7F7F7" opacity="1.000000" stroke="none" 
	d="
M199.870026,162.878738 
	C203.358643,160.046082 204.330017,163.142990 206.328201,164.822510 
	C203.661514,164.822510 201.518951,164.822510 199.376389,164.822510 
	C199.437759,164.212402 199.499115,163.602310 199.870026,162.878738 
z"/>
<path fill="#F6F6F6" opacity="1.000000" stroke="none" 
	d="
M240.474380,165.213242 
	C241.329453,160.776779 244.099350,162.468781 246.678741,163.414536 
	C244.694763,164.076508 242.710800,164.738480 240.474380,165.213242 
z"/>
<path fill="#F6F6F6" opacity="1.000000" stroke="none" 
	d="
M241.071350,168.902649 
	C242.801422,168.942642 244.531479,168.982620 246.636017,169.010376 
	C247.010468,168.998138 247.095337,169.070190 247.095337,169.070190 
	C245.537552,173.205200 243.506882,173.362061 241.011765,169.393143 
	C240.990479,168.995468 241.071350,168.902649 241.071350,168.902649 
z"/>
<path fill="#F7F7F7" opacity="1.000000" stroke="none" 
	d="
M199.051605,168.930878 
	C200.789230,168.962402 202.526871,168.993912 204.636826,169.011673 
	C205.009155,168.997910 205.086365,169.063278 205.086365,169.063278 
	C203.530884,173.191330 201.510071,173.384399 199.015320,169.389130 
	C198.990646,168.999985 199.051605,168.930878 199.051605,168.930878 
z"/>
<path fill="#E1E1E1" opacity="1.000000" stroke="none" 
	d="
M99.023544,168.614685 
	C99.169128,167.263885 99.383469,166.283798 99.597809,165.303696 
	C100.094521,165.584290 100.591225,165.864883 101.087936,166.145462 
	C100.422729,167.092117 99.757515,168.038757 99.023544,168.614685 
z"/>
<path fill="#F3F3F3" opacity="1.000000" stroke="none" 
	d="
M68.854607,165.128433 
	C68.338554,164.623108 67.822502,164.117798 67.306450,163.612473 
	C67.652397,163.310791 67.998344,163.009109 68.344292,162.707428 
	C68.584496,163.246246 68.824699,163.785065 69.020599,164.675781 
	C68.976295,165.027664 68.854607,165.128433 68.854607,165.128433 
z"/>
<path fill="#E0E0E0" opacity="1.000000" stroke="none" 
	d="
M50.940716,165.068024 
	C50.099182,165.041672 49.309246,164.958862 48.519306,164.876038 
	C48.577297,164.476318 48.635288,164.076584 48.693279,163.676865 
	C49.470772,163.869797 50.248264,164.062744 51.063198,164.579651 
	C51.100639,164.903595 50.992313,165.011581 50.940716,165.068024 
z"/>
<path fill="#F3F3F3" opacity="1.000000" stroke="none" 
	d="
M68.843376,168.817871 
	C68.868980,167.832153 68.894585,166.846451 68.887390,165.494583 
	C68.854607,165.128433 68.976295,165.027664 69.040276,164.981110 
	C69.283920,166.170944 69.463585,167.407364 69.326141,168.819626 
	C69.009026,168.995483 68.843376,168.817871 68.843376,168.817871 
z"/>
<path fill="#F3F3F3" opacity="1.000000" stroke="none" 
	d="
M66.852753,170.838120 
	C67.317749,170.220306 67.782745,169.602509 68.545555,168.901291 
	C68.843376,168.817871 69.009026,168.995483 69.099998,169.077515 
	C68.697762,169.778381 68.204552,170.397232 67.340973,170.995682 
	C66.970596,170.975281 66.852760,170.838120 66.852753,170.838120 
z"/>
<path fill="#E1E1E1" opacity="1.000000" stroke="none" 
	d="
M96.053360,170.944275 
	C96.863800,170.978821 97.625969,171.069138 98.388130,171.159454 
	C98.362793,171.387955 98.337456,171.616455 98.312119,171.844955 
	C97.636238,171.766647 96.960365,171.688354 96.098984,171.362854 
	C95.913475,171.115631 96.005089,171.000031 96.053360,170.944275 
z"/>
<path fill="#E1E1E1" opacity="1.000000" stroke="none" 
	d="
M98.053772,162.945404 
	C98.625641,162.896149 99.197449,162.845505 99.770340,162.816605 
	C99.776405,162.816315 99.826225,163.230133 99.806335,163.234680 
	C99.282646,163.354202 98.752434,163.445175 98.111862,163.268631 
	C98.000381,162.996216 98.053772,162.945404 98.053772,162.945404 
z"/>
<path fill="#F3F3F3" opacity="1.000000" stroke="none" 
	d="
M67.025887,171.046814 
	C66.590645,171.230316 66.100113,171.342285 65.609581,171.454254 
	C65.865799,171.286942 66.122025,171.119629 66.615501,170.895218 
	C66.852760,170.838120 66.970596,170.975281 67.025887,171.046814 
z"/>
<path fill="#E1E1E1" opacity="1.000000" stroke="none" 
	d="
M97.971466,163.019073 
	C97.829063,162.596848 97.715561,162.151764 97.602066,161.706680 
	C97.725204,161.968155 97.848335,162.229630 98.012619,162.718262 
	C98.053772,162.945404 98.000381,162.996216 97.971466,163.019073 
z"/>
<path fill="#F6F6F6" opacity="1.000000" stroke="none" 
	d="
M240.943924,169.035736 
	C240.791855,168.889099 240.686356,168.702209 240.580856,168.515305 
	C240.690231,168.552261 240.799622,168.589218 240.990173,168.764404 
	C241.071350,168.902649 240.990479,168.995468 240.943924,169.035736 
z"/>
<path fill="#F6F6F6" opacity="1.000000" stroke="none" 
	d="
M246.973526,168.956512 
	C247.113678,168.810760 247.290771,168.706650 247.467850,168.602539 
	C247.431473,168.705811 247.395096,168.809067 247.227020,168.991272 
	C247.095337,169.070190 247.010468,168.998138 246.973526,168.956512 
z"/>
<path fill="#F7F7F7" opacity="1.000000" stroke="none" 
	d="
M204.975677,168.959991 
	C205.114380,168.817490 205.286575,168.712891 205.458771,168.608307 
	C205.421249,168.708435 205.383728,168.808578 205.216278,168.985992 
	C205.086365,169.063278 205.009155,168.997910 204.975677,168.959991 
z"/>
<path fill="#F7F7F7" opacity="1.000000" stroke="none" 
	d="
M198.955627,169.029907 
	C198.816544,168.889374 198.712509,168.718903 198.608475,168.548447 
	C198.706329,168.588776 198.804199,168.629089 198.976837,168.800140 
	C199.051605,168.930878 198.990646,168.999985 198.955627,169.029907 
z"/>
<path fill="#FCFEFF" opacity="1.000000" stroke="none" 
	d="
M193.819305,76.368057 
	C188.377930,76.378029 183.417343,76.378029 178.040802,76.378029 
	C178.040802,68.221359 178.040802,60.465782 178.040802,52.311737 
	C175.741653,52.311737 173.854797,52.311737 171.332687,52.311737 
	C171.332687,60.012581 171.332687,67.887131 171.332687,76.062386 
	C163.971252,76.062386 157.232544,76.062386 149.831909,76.062386 
	C149.831909,68.217445 149.831909,60.331818 149.831909,52.044617 
	C143.593369,52.044617 137.997879,52.044617 131.484192,52.044617 
	C133.100616,45.937244 134.453888,40.400826 136.128815,34.963493 
	C136.373108,34.170418 138.127655,33.454395 139.226227,33.385471 
	C142.516220,33.179047 145.827423,33.311214 149.554352,33.311214 
	C149.554352,25.107075 149.554352,17.339787 149.554352,9.230466 
	C156.853592,9.230466 163.730927,9.230466 171.064621,9.230466 
	C171.064621,17.080122 171.064621,24.828135 171.064621,32.933739 
	C173.408127,32.933739 175.307983,32.933739 177.611511,32.933739 
	C177.611511,25.235479 177.611511,17.474556 177.611511,8.932454 
	C184.387054,8.932454 190.799637,8.789984 197.190598,9.097192 
	C198.075470,9.139726 199.565201,11.399559 199.574677,12.642069 
	C199.727097,32.615131 199.649017,52.589802 199.715836,72.563797 
	C199.729614,76.684593 197.071289,76.478516 193.819305,76.368057 
z"/>
<path fill="#FBFDFF" opacity="1.000000" stroke="none" 
	d="
M114.123779,30.123047 
	C115.295662,31.485491 116.412437,33.076836 117.650963,33.178017 
	C121.723480,33.510742 125.840141,33.303185 130.674896,33.303185 
	C128.910889,39.958206 127.360031,45.809116 125.722351,51.987583 
	C121.791695,51.987583 118.184799,51.987583 114.380096,51.987583 
	C114.380096,54.031055 114.380096,55.641640 114.380096,57.863441 
	C123.738914,57.863441 133.122711,57.863441 142.751175,57.863441 
	C142.751175,64.217583 142.751175,69.966034 142.751175,76.384186 
	C136.730881,76.384186 130.807297,76.385368 124.883713,76.383911 
	C115.555878,76.381615 106.225716,76.256668 96.901398,76.436081 
	C93.368034,76.504074 92.243179,75.164917 92.259872,71.760956 
	C92.354568,52.439251 92.300697,33.116829 92.310852,13.794660 
	C92.312096,11.428794 92.126289,8.872976 95.643799,8.872211 
	C111.278122,8.868807 126.912437,8.870735 143.062607,8.870735 
	C141.553986,14.591800 140.331070,19.900133 138.641006,25.055321 
	C138.314865,26.050129 136.180023,26.974012 134.844818,27.025240 
	C129.189743,27.242203 123.514275,26.964838 117.863686,27.234020 
	C116.581505,27.295097 115.369011,28.818914 114.123779,30.123047 
z"/>
<path fill="#F2F2F2" opacity="1.000000" stroke="none" 
	d="
M48.196686,129.066803 
	C48.750072,125.093803 47.804298,120.127853 53.835075,121.160103 
	C55.412125,121.430031 57.158291,123.810074 57.801765,125.591309 
	C58.486954,127.488029 57.769245,129.844116 57.997829,131.963654 
	C58.400078,135.693481 56.688713,137.532578 53.162823,137.928925 
	C49.448711,138.346405 48.873100,135.646103 48.427513,132.943130 
	C48.241016,131.811859 48.266788,130.645599 48.196686,129.066803 
z"/>
<path fill="#ECECEC" opacity="1.000000" stroke="none" 
	d="
M202.774445,138.090103 
	C201.478958,136.295563 199.446106,133.449753 199.950577,132.889755 
	C201.627319,131.028549 204.216110,129.989014 207.081192,128.255692 
	C208.157944,133.748932 208.264999,137.174240 202.774445,138.090103 
z"/>
<path fill="#F5F5F5" opacity="1.000000" stroke="none" 
	d="
M86.118683,126.270493 
	C86.299103,122.944534 87.479698,120.052338 90.595879,120.696243 
	C92.575737,121.105362 94.063118,123.897873 95.771339,125.621582 
	C95.421669,126.184189 95.072006,126.746788 94.722336,127.309387 
	C91.875420,127.107620 89.028503,126.905846 86.118683,126.270493 
z"/>
<path fill="#F3F3F3" opacity="1.000000" stroke="none" 
	d="
M266.110107,120.519669 
	C270.340729,120.965149 271.211823,123.398689 270.707550,127.018730 
	C267.845032,127.018730 265.105469,127.018730 260.501709,127.018730 
	C262.768921,124.231491 264.234131,122.430237 266.110107,120.519669 
z"/>
</svg>