<svg version="1.1" id="Layer_1" xmlns="http://www.w3.org/2000/svg" xmlns:xlink="http://www.w3.org/1999/xlink" x="0px" y="0px"
	 width="100%" viewBox="0 0 1280 249" enable-background="new 0 0 1280 249" xml:space="preserve">
<path fill="#000000" opacity="1.000000" stroke="none" 
	d="
M1281.000000,164.000000 
	C1281.000000,192.655823 1281.000000,221.311630 1281.000000,250.000000 
	C937.640808,250.000000 594.281677,250.000000 250.462173,249.531342 
	C250.001236,166.375122 250.000626,83.687561 250.000000,1.000000 
	C593.666687,1.000000 937.333374,1.000000 1281.000000,1.000000 
	C1281.000000,45.776501 1281.000000,90.427002 1280.635498,135.547150 
	C1279.782349,135.223129 1279.211182,134.468094 1278.818726,133.629501 
	C1275.910156,127.417274 1272.531982,121.623993 1266.544312,117.746094 
	C1255.601440,110.658798 1243.685791,109.791687 1231.273438,112.020500 
	C1218.111206,114.383942 1206.988525,120.609886 1198.187622,130.597321 
	C1190.470947,139.354477 1185.962158,149.805618 1184.415161,161.349640 
	C1182.572876,175.096481 1184.540039,187.963455 1195.426514,197.842484 
	C1203.622681,205.280228 1213.703613,206.927826 1224.493652,207.111847 
	C1247.621216,207.506256 1269.786011,191.124115 1277.205933,170.805130 
	C1278.085571,168.396149 1279.717041,166.261688 1281.000000,164.000000 
M375.513397,137.989960 
	C387.329285,130.531128 391.901550,114.911461 389.552979,101.130814 
	C388.408844,94.417336 384.332703,90.036591 378.539520,86.757240 
	C371.243530,82.627243 363.255035,81.281395 355.171265,81.102661 
	C339.360931,80.753067 323.537445,80.992477 307.719421,81.013008 
	C306.296661,81.014862 304.874176,81.198242 303.056763,81.324814 
	C304.546600,86.010422 305.993835,90.209320 307.187531,94.479095 
	C307.711029,96.351601 308.203278,98.453003 307.881714,100.306862 
	C305.264465,115.396515 302.502625,130.461792 299.684265,145.515671 
	C296.230927,163.961380 292.674438,182.387756 289.178314,200.825470 
	C288.673981,203.485229 289.690155,204.658569 292.535492,205.056824 
	C309.345520,207.409698 326.201752,208.179031 343.038147,205.923279 
	C356.907776,204.065018 369.523254,198.978592 377.505249,186.784531 
	C383.827454,177.126160 387.755005,166.516251 384.033325,154.555222 
	C381.979248,147.953629 376.965729,144.083923 371.033722,140.639587 
	C372.675964,139.726318 373.829041,139.085098 375.513397,137.989960 
M814.500000,131.999191 
	C807.103394,131.999191 799.706787,131.999191 791.938660,131.999191 
	C793.858154,121.775444 795.605591,112.468277 797.383606,102.998451 
	C799.776855,102.998451 801.595520,102.998451 803.414185,102.998451 
	C818.572327,102.998421 833.731079,103.063797 848.887634,102.907646 
	C850.598083,102.890015 853.385925,102.026810 853.816101,100.866684 
	C856.022034,94.918282 857.990234,88.785042 856.545776,82.373886 
	C827.828613,82.373886 799.604004,82.373886 770.902771,82.373886 
	C772.354370,87.394470 774.464844,91.899117 774.771362,96.523346 
	C775.091553,101.353844 773.852417,106.330917 772.987366,111.189156 
	C769.552002,130.484192 766.012512,149.760773 762.479065,169.038223 
	C760.380615,180.486725 758.221497,191.924103 756.120361,203.201431 
	C756.645447,203.528351 756.786499,203.692993 756.928284,203.693573 
	C782.730713,203.799637 808.533203,203.910202 834.335693,203.920349 
	C835.220520,203.920700 836.613525,203.106644 836.909790,202.339935 
	C839.114807,196.632843 841.028442,190.831879 839.449097,184.023178 
	C820.493103,184.023178 801.601440,184.023178 782.343811,184.023178 
	C784.402832,172.966263 786.350281,162.508408 788.307190,151.999939 
	C803.890930,151.999939 818.711670,152.095535 833.528076,151.883224 
	C835.457642,151.855591 838.315735,150.753021 839.109924,149.272125 
	C841.880127,144.106750 842.891724,138.428680 841.435852,131.999191 
	C832.738770,131.999191 824.119385,131.999191 814.500000,131.999191 
M1178.006226,152.565735 
	C1182.332764,129.290192 1186.659424,106.014656 1190.991699,82.708763 
	C1190.144409,82.397034 1189.636841,82.002739 1189.257446,82.101501 
	C1182.554932,83.845650 1175.834717,85.539711 1169.213623,87.557640 
	C1168.196655,87.867577 1167.223511,89.639198 1166.960327,90.888649 
	C1165.369873,98.440407 1163.991943,106.036919 1162.641846,113.100555 
	C1155.313721,112.724136 1148.250000,111.866379 1141.222046,112.096703 
	C1122.972290,112.694801 1108.827515,121.338600 1097.751709,135.485794 
	C1090.573975,144.653809 1086.986450,155.418747 1086.232544,166.688049 
	C1085.208984,181.984909 1088.739014,193.382980 1102.810547,201.806396 
	C1110.064453,206.148621 1118.335205,206.947784 1126.766479,207.174194 
	C1140.383301,207.539825 1153.404053,205.178345 1165.860107,199.890747 
	C1167.707764,199.106354 1169.637695,196.651413 1170.054321,194.660583 
	C1172.920288,180.964935 1175.393921,167.187180 1178.006226,152.565735 
M445.000397,132.116531 
	C453.909790,135.338928 456.215179,139.246460 455.015106,148.747849 
	C454.680420,151.397491 453.756653,151.673447 451.070648,151.276428 
	C443.576172,150.168655 435.968323,148.988663 428.436371,149.165451 
	C416.323090,149.449768 405.367554,153.589127 396.895691,162.670944 
	C388.037323,172.167114 384.560791,191.546371 396.771118,199.861664 
	C402.240723,203.586456 409.354431,206.072266 415.957764,206.720871 
	C431.380707,208.235779 446.601532,206.143112 461.389618,200.935272 
	C466.303223,199.204849 468.280975,196.503342 469.098053,191.558426 
	C471.780731,175.323074 474.865479,159.153610 477.849030,142.968674 
	C479.781525,132.485535 472.279572,118.515373 462.090363,115.186943 
	C441.974518,108.615837 422.945312,111.464294 405.381622,123.255157 
	C404.094238,124.119408 402.822540,126.738152 403.215912,128.033264 
	C404.190155,131.240845 405.739777,134.484055 407.871796,137.032227 
	C408.802216,138.144257 412.121216,138.410492 413.677307,137.658127 
	C423.377075,132.968399 433.239471,129.753021 445.000397,132.116531 
M1058.022827,135.530060 
	C1061.679565,140.081009 1062.195679,146.440842 1059.229004,151.803818 
	C1048.656616,148.636063 1037.851562,147.926834 1026.947998,150.018814 
	C1015.299744,152.253647 1005.073425,157.204651 999.140198,167.938629 
	C990.797302,183.032059 993.942322,200.838943 1013.745239,205.290466 
	C1033.607422,209.755341 1052.827881,206.318146 1071.502686,199.074677 
	C1072.666138,198.623383 1073.741577,196.713348 1073.991821,195.325851 
	C1077.261475,177.189850 1080.596924,159.060379 1083.440552,140.855026 
	C1085.035278,130.646057 1079.459229,120.020126 1069.868286,116.095642 
	C1049.657715,107.825745 1030.404175,111.248970 1012.028320,122.276878 
	C1008.914673,124.145447 1008.578003,126.432152 1009.255676,129.357056 
	C1011.250427,137.966736 1015.336304,139.609467 1023.400818,135.933868 
	C1034.531372,130.860870 1045.917480,127.958031 1058.022827,135.530060 
M740.532410,186.965454 
	C750.958374,174.346893 755.466980,159.807510 753.923706,143.588287 
	C752.948669,133.340759 748.973206,124.447525 740.018250,118.423729 
	C727.764343,110.180794 714.414124,109.316437 700.564209,112.760078 
	C672.180176,119.817513 654.686523,145.445053 657.092712,175.091217 
	C657.700134,182.575089 660.393250,189.511261 665.688660,195.215195 
	C676.715149,207.092438 690.914734,208.457153 705.600586,206.509094 
	C719.326172,204.688400 730.777161,197.849548 740.532410,186.965454 
M561.573975,116.819641 
	C550.009827,110.323143 537.586609,110.161636 525.098328,112.582581 
	C517.261169,114.101891 509.675415,115.884933 501.917297,112.511627 
	C500.021423,111.687294 497.897705,111.387062 495.134064,110.646248 
	C489.315186,142.207794 483.599640,173.208633 477.742981,204.974976 
	C484.882782,204.974976 491.337158,205.154999 497.762726,204.805710 
	C498.892731,204.744308 500.599274,202.596725 500.862061,201.192261 
	C504.374939,182.416824 507.596252,163.586792 511.116516,144.812790 
	C511.685760,141.776810 512.529785,137.494385 514.661743,136.287430 
	C521.677063,132.315887 529.707031,131.039368 537.738525,132.172379 
	C549.025879,133.764679 551.838989,141.310165 550.759888,149.321945 
	C548.959839,162.687027 545.904968,175.881454 543.446411,189.160324 
	C542.506592,194.236267 541.753479,199.346771 540.826111,204.983505 
	C548.023376,204.983505 554.329468,205.153748 560.610291,204.831757 
	C561.786865,204.771439 563.620667,202.888657 563.870483,201.598770 
	C567.315918,183.814621 570.998169,166.055344 573.651367,148.146103 
	C575.430359,136.138321 574.207458,124.447311 561.573975,116.819641 
M867.977173,120.448090 
	C858.672729,126.488632 852.945312,139.279968 855.130188,149.814819 
	C857.221375,159.897614 865.099487,163.607513 873.903687,165.967178 
	C881.209167,167.925171 888.697205,169.274979 895.880066,171.589966 
	C900.195435,172.980774 901.694519,176.974838 899.333313,180.822784 
	C897.565308,183.704193 894.537964,186.941956 891.490356,187.707397 
	C880.233154,190.534683 869.106323,189.969116 859.241516,182.748138 
	C856.782715,180.948303 854.232300,180.400024 852.077393,182.634811 
	C849.109497,185.712845 846.290222,189.016525 843.969360,192.588715 
	C843.221802,193.739365 843.601562,196.970062 844.580322,197.654007 
	C848.198120,200.182129 852.125305,202.431732 856.219543,204.083786 
	C869.677917,209.514343 883.548401,208.205597 897.005066,204.667603 
	C906.791992,202.094437 915.112122,196.228317 919.634644,186.624115 
	C925.494446,174.179962 925.100220,161.124557 913.569275,155.146667 
	C910.231628,153.416321 906.631226,152.028214 902.996277,151.072433 
	C896.784546,149.439117 890.404602,148.450363 884.179626,146.860748 
	C876.915466,145.005798 874.881409,139.607193 879.515625,134.363754 
	C880.943604,132.747955 883.341492,131.608597 885.498230,131.082016 
	C896.017822,128.513580 906.299561,129.669373 915.898315,134.590286 
	C919.305359,136.336960 921.674683,135.674713 923.727173,133.255463 
	C925.956909,130.627487 927.699036,127.586052 929.655518,124.726143 
	C931.766113,121.641052 930.833191,119.839020 927.567017,118.172974 
	C917.642090,113.110275 907.408020,111.008194 896.131226,111.783508 
	C886.134277,112.470833 876.844177,114.226074 867.977173,120.448090 
M637.438110,204.012741 
	C639.003174,203.478256 640.610413,203.042252 642.126709,202.393723 
	C654.659119,197.033432 655.723694,190.526398 645.616272,181.166031 
	C645.151794,180.735870 644.549561,180.454529 645.103271,180.815369 
	C638.395813,183.298553 632.730591,186.203308 626.722229,187.437637 
	C616.842346,189.467316 606.036987,185.420181 603.063293,174.433502 
	C599.331177,160.645187 604.035706,142.045853 619.352173,134.359360 
	C627.763611,130.138107 636.460327,129.099167 645.045105,134.050278 
	C651.372681,137.699539 651.806641,137.894958 656.983276,132.395889 
	C660.062073,129.125381 662.520874,125.271263 665.239380,121.704559 
	C653.223694,112.230980 640.745605,109.450188 626.653381,111.879395 
	C611.459229,114.498558 599.487000,122.078972 590.126892,133.918839 
	C580.460510,146.146210 577.895203,160.454971 578.990051,175.665695 
	C579.721497,185.828003 583.627441,194.419495 592.276489,200.030991 
	C606.235840,209.087799 621.294800,208.839737 637.438110,204.012741 
M938.005737,159.568222 
	C936.898926,166.226822 935.993042,172.926529 934.641602,179.535095 
	C932.177612,191.583191 938.483887,202.618851 950.326965,205.559601 
	C962.253540,208.521057 973.807617,207.238586 985.148376,202.073044 
	C994.517639,197.805496 992.933716,191.969833 989.221680,185.341766 
	C987.284058,181.881989 985.350281,181.843079 981.973877,183.425049 
	C977.888000,185.339432 973.452759,187.061752 969.022217,187.557251 
	C962.376831,188.300476 957.574524,183.848892 957.408203,177.514221 
	C957.331970,174.612183 958.098022,171.673294 958.608215,168.773300 
	C960.377197,158.717560 962.366455,148.696899 963.915588,138.608170 
	C964.461975,135.050201 965.865601,133.851898 969.390381,133.935318 
	C977.713562,134.132324 986.047058,134.101456 994.370300,133.904907 
	C995.923706,133.868210 998.490662,132.945480 998.810730,131.891373 
	C1000.403809,126.644974 1001.402161,121.217987 1002.822266,114.911530 
	C990.743408,114.911530 980.028442,114.911530 968.590820,114.911530 
	C969.999756,106.893326 971.268188,99.674805 972.648560,91.819389 
	C965.178284,93.919815 958.226685,95.775009 951.363281,97.913391 
	C950.354492,98.227684 949.320312,99.785149 949.057373,100.940353 
	C947.888062,106.076355 946.983704,111.273087 946.004700,116.451866 
	C943.342773,130.533096 940.691467,144.616348 938.005737,159.568222 
M1221.177490,226.331848 
	C1224.794312,223.727066 1225.130615,219.568710 1223.349243,216.606689 
	C1222.108154,214.542999 1218.085205,213.192932 1215.307983,213.197815 
	C1207.900513,213.210800 1203.781494,220.374130 1206.475220,227.599350 
	C1205.339478,229.209427 1204.104614,230.759415 1203.086304,232.440628 
	C1199.807129,237.854813 1201.850708,242.761093 1208.002197,243.837204 
	C1212.910156,244.695770 1217.022461,243.116867 1220.359497,239.207642 
	C1223.878662,235.084991 1221.832031,231.027496 1221.177490,226.331848 
M1063.960815,231.702927 
	C1062.271362,235.596664 1062.386108,240.267151 1065.935791,241.856979 
	C1069.766235,243.572617 1074.722778,242.979431 1079.190552,243.007980 
	C1083.521240,243.035660 1083.036255,239.072342 1083.641846,236.475632 
	C1085.331909,229.228195 1086.658691,221.896027 1088.197388,214.257812 
	C1085.710449,214.257812 1084.126465,214.257812 1082.692871,214.257812 
	C1080.978760,217.062790 1083.184326,222.201859 1077.570312,221.979233 
	C1070.869019,221.713455 1066.798462,225.257462 1063.960815,231.702927 
M1148.031006,218.735489 
	C1148.397827,222.491592 1145.757324,221.960571 1143.440430,222.010788 
	C1135.471436,222.183578 1130.358521,227.156128 1129.989014,234.924316 
	C1129.793335,239.038635 1131.336182,242.063049 1135.241943,243.577560 
	C1139.305298,245.153214 1147.589478,243.649918 1149.300903,241.109116 
	C1149.650635,240.590042 1149.842773,239.923920 1149.963379,239.297836 
	C1151.545532,231.080948 1153.101685,222.859055 1154.666260,214.628342 
	C1150.973633,212.913879 1148.961182,214.241791 1148.031006,218.735489 
M1233.795898,214.999664 
	C1231.561279,214.789841 1230.146362,215.214508 1229.781250,217.990585 
	C1229.232300,222.165344 1228.101685,226.263626 1227.058716,231.141388 
	C1230.033691,230.704361 1232.401733,230.121201 1234.774414,230.101624 
	C1236.069580,230.090927 1238.122192,230.725296 1238.492798,231.622360 
	C1239.022949,232.906235 1238.810913,234.994553 1238.061523,236.214600 
	C1235.900879,239.732590 1232.871460,239.341537 1229.363281,237.925568 
	C1228.228882,237.467682 1226.251343,239.098114 1224.659546,239.773285 
	C1225.513062,241.043869 1226.228394,243.263428 1227.245361,243.411575 
	C1230.636841,243.905594 1234.270020,244.269272 1237.563721,243.551010 
	C1242.626709,242.446960 1245.722534,236.524078 1244.960938,230.475250 
	C1244.277100,225.043640 1240.027100,225.098434 1235.968506,224.939789 
	C1235.379272,224.916748 1234.803345,224.552475 1233.607544,224.128479 
	C1236.924072,218.263306 1242.745972,222.828644 1246.555542,220.253937 
	C1246.555542,218.712906 1246.555542,217.029541 1246.555542,214.998947 
	C1242.333862,214.998947 1238.528931,214.998947 1233.795898,214.999664 
M1265.228271,220.999817 
	C1269.672729,221.489532 1269.166992,218.487885 1269.307983,215.059158 
	C1264.209717,215.059158 1259.439209,214.987244 1254.675049,215.129242 
	C1253.871094,215.153214 1252.537720,215.979187 1252.394897,216.639297 
	C1251.406250,221.207581 1250.668213,225.830078 1249.714966,231.192734 
	C1252.639648,230.676910 1254.607300,229.856339 1256.396851,230.143982 
	C1258.284302,230.447372 1260.001953,231.808426 1261.793701,232.707428 
	C1260.676758,234.543549 1259.939941,236.935562 1258.323364,238.041092 
	C1257.012695,238.937454 1254.357544,238.916107 1252.800171,238.204391 
	C1248.370117,236.179764 1247.397705,238.647217 1246.040771,243.235855 
	C1250.737549,243.489914 1254.789795,244.176697 1258.740723,243.800079 
	C1263.297485,243.365692 1268.050293,236.448425 1267.903809,231.490677 
	C1267.794678,227.792053 1264.267212,225.426315 1258.230713,224.962173 
	C1257.598999,224.913589 1256.981812,224.675354 1255.860962,224.405411 
	C1257.326294,219.148499 1261.512573,221.680954 1265.228271,220.999817 
M1092.432739,243.633469 
	C1095.849121,243.464798 1099.433472,243.888443 1102.639648,242.978836 
	C1106.731323,241.818054 1106.684814,240.921860 1103.829590,237.309067 
	C1096.880615,240.196411 1095.125122,239.821396 1094.024048,234.999924 
	C1097.055298,234.999924 1100.041138,235.100204 1103.016968,234.968643 
	C1105.457642,234.860718 1108.754395,236.041412 1108.974487,231.753265 
	C1109.176147,227.825699 1109.199219,223.924423 1104.533691,222.319565 
	C1099.485352,220.583023 1092.448242,222.934433 1089.962891,227.104553 
	C1086.524170,232.874176 1087.181396,238.753326 1092.432739,243.633469 
M1160.599487,235.389893 
	C1164.240723,235.259109 1167.887085,234.948502 1171.521606,235.053146 
	C1174.554810,235.140488 1175.653687,233.648514 1175.985474,230.967453 
	C1176.772461,224.607971 1173.142944,221.397110 1165.647949,222.022141 
	C1160.503906,222.451141 1156.985352,225.425354 1155.203003,230.022629 
	C1153.610107,234.131195 1153.167236,238.488800 1156.985962,241.924316 
	C1160.953979,245.494156 1165.370483,244.217941 1169.548828,242.543869 
	C1170.628418,242.111313 1171.092285,240.141708 1171.838867,238.878098 
	C1170.489258,238.611801 1168.940796,237.788239 1167.827881,238.185364 
	C1164.684326,239.307037 1162.010986,239.810287 1160.599487,235.389893 
M1112.494141,232.968048 
	C1115.321289,234.253830 1118.148315,235.539597 1120.975464,236.825378 
	C1120.831665,237.474777 1120.687866,238.124191 1120.543945,238.773605 
	C1117.375366,238.526535 1114.206665,238.279480 1110.484619,237.989273 
	C1109.902710,238.714523 1108.933838,239.921997 1107.895630,241.215927 
	C1113.415894,244.853394 1118.757935,245.376633 1123.691650,241.914368 
	C1125.454468,240.677292 1126.724854,237.596466 1126.711548,235.366196 
	C1126.702515,233.837891 1124.279541,232.041183 1122.579468,230.890778 
	C1121.086182,229.880356 1119.097656,229.601898 1117.327881,229.000168 
	C1117.384888,228.471710 1117.441895,227.943253 1117.498901,227.414795 
	C1119.947266,227.414795 1122.445190,227.707413 1124.825684,227.305405 
	C1126.261230,227.062958 1127.514648,225.740646 1128.849854,224.903580 
	C1127.872192,223.973877 1126.987671,222.398026 1125.898682,222.241058 
	C1123.131104,221.842194 1120.215576,221.716492 1117.462769,222.145401 
	C1113.329346,222.789429 1110.615601,228.212708 1112.494141,232.968048 
M1191.168945,223.405334 
	C1194.877075,222.540466 1193.970093,224.853409 1193.556763,226.854767 
	C1192.477173,232.082169 1191.412109,237.312561 1190.337646,242.559219 
	C1193.900635,243.486313 1196.281128,243.191376 1196.991577,239.306076 
	C1198.438232,231.394424 1200.038818,223.510895 1201.816406,214.380890 
	C1197.900024,215.498245 1194.471680,216.243439 1191.221802,217.464020 
	C1187.384399,218.905289 1187.346802,220.028046 1191.168945,223.405334 
z"/>
<path fill="#FFFEFE" opacity="1.000000" stroke="none" 
	d="
M249.531342,1.000000 
	C250.000626,83.687561 250.001236,166.375122 250.000916,249.531342 
	C167.048615,250.000000 84.097229,250.000000 1.072924,250.000000 
	C1.072924,167.097290 1.072924,84.194489 1.072924,1.000000 
	C83.687332,1.000000 166.375015,1.000000 249.531342,1.000000 
M90.389954,167.994858 
	C73.029152,175.525391 55.640259,182.992065 38.318439,190.611237 
	C28.482065,194.937851 18.755499,199.514114 8.147682,204.155334 
	C7.769000,204.618149 7.061759,205.079391 7.059546,205.544022 
	C6.999531,218.149796 7.011641,230.755920 7.011641,243.454224 
	C86.186455,243.454224 164.947952,243.454224 243.615677,243.454224 
	C243.615677,230.082962 243.615677,217.114731 243.857407,203.219101 
	C243.875854,181.402054 243.928329,159.584946 243.901077,137.767960 
	C243.882156,122.619865 243.753555,107.471909 243.874527,91.364525 
	C243.874527,63.286327 243.874527,35.208130 243.874527,7.217782 
	C164.545685,7.217782 85.943169,7.217782 7.264312,7.217782 
	C7.264312,46.660686 7.264312,85.851135 7.264312,125.511711 
	C9.193155,124.759026 10.724339,124.222534 12.206520,123.574043 
	C37.269928,112.608238 62.322243,101.617050 87.399117,90.682182 
	C88.806114,90.068657 90.404320,89.893661 91.566025,90.469498 
	C91.693321,98.744286 91.820618,107.019081 91.846771,115.533607 
	C91.761421,115.685524 91.660980,115.826698 90.738029,115.991699 
	C63.634418,127.806999 36.524372,139.607635 9.452245,151.494644 
	C8.437585,151.940140 7.103061,153.208145 7.081316,154.120605 
	C6.893602,161.997543 6.973324,169.880890 6.973324,178.470566 
	C19.024523,173.177185 30.230486,168.203049 41.478806,163.326599 
	C58.237228,156.061371 75.025536,148.865067 91.506195,142.597183 
	C91.360779,151.180634 91.215370,159.764069 90.389954,167.994858 
z"/>
<path fill="#323E48" opacity="1.000000" stroke="none" 
	d="
M1281.000000,163.531342 
	C1279.717041,166.261688 1278.085571,168.396149 1277.205933,170.805130 
	C1269.786011,191.124115 1247.621216,207.506256 1224.493652,207.111847 
	C1213.703613,206.927826 1203.622681,205.280228 1195.426514,197.842484 
	C1184.540039,187.963455 1182.572876,175.096481 1184.415161,161.349640 
	C1185.962158,149.805618 1190.470947,139.354477 1198.187622,130.597321 
	C1206.988525,120.609886 1218.111206,114.383942 1231.273438,112.020500 
	C1243.685791,109.791687 1255.601440,110.658798 1266.544312,117.746094 
	C1272.531982,121.623993 1275.910156,127.417274 1278.818726,133.629501 
	C1279.211182,134.468094 1279.782349,135.223129 1280.635498,136.008408 
	C1281.000000,145.020889 1281.000000,154.041794 1281.000000,163.531342 
M1209.419556,177.869659 
	C1216.500854,192.213806 1239.619263,189.025497 1249.901123,177.380371 
	C1255.786621,170.714615 1258.183228,162.697830 1258.803711,154.297256 
	C1259.463257,145.364639 1255.780151,134.289429 1243.954346,131.476547 
	C1236.080688,129.603729 1221.916138,132.345398 1214.275146,143.102036 
	C1206.774902,153.660629 1204.578491,164.872437 1209.419556,177.869659 
z"/>
<path fill="#323E48" opacity="1.000000" stroke="none" 
	d="
M375.247742,138.216919 
	C373.829041,139.085098 372.675964,139.726318 371.033722,140.639587 
	C376.965729,144.083923 381.979248,147.953629 384.033325,154.555222 
	C387.755005,166.516251 383.827454,177.126160 377.505249,186.784531 
	C369.523254,198.978592 356.907776,204.065018 343.038147,205.923279 
	C326.201752,208.179031 309.345520,207.409698 292.535492,205.056824 
	C289.690155,204.658569 288.673981,203.485229 289.178314,200.825470 
	C292.674438,182.387756 296.230927,163.961380 299.684265,145.515671 
	C302.502625,130.461792 305.264465,115.396515 307.881714,100.306862 
	C308.203278,98.453003 307.711029,96.351601 307.187531,94.479095 
	C305.993835,90.209320 304.546600,86.010422 303.056763,81.324814 
	C304.874176,81.198242 306.296661,81.014862 307.719421,81.013008 
	C323.537445,80.992477 339.360931,80.753067 355.171265,81.102661 
	C363.255035,81.281395 371.243530,82.627243 378.539520,86.757240 
	C384.332703,90.036591 388.408844,94.417336 389.552979,101.130814 
	C391.901550,114.911461 387.329285,130.531128 375.247742,138.216919 
M347.305634,186.038788 
	C349.563385,185.013260 351.998962,184.258240 354.046051,182.912323 
	C360.633698,178.581116 362.985504,171.721191 362.741241,164.476379 
	C362.504272,157.448380 357.179474,153.388016 350.697327,152.531738 
	C341.098694,151.263763 331.354309,151.099442 321.571167,150.458649 
	C319.300934,162.288971 317.100677,173.063324 315.349060,183.910126 
	C315.166107,185.043137 317.668243,187.806915 318.873169,187.776520 
	C328.095062,187.543915 337.304199,186.806046 347.305634,186.038788 
M367.239227,108.544930 
	C364.635437,106.024651 362.428558,102.224869 359.340179,101.266884 
	C353.938324,99.591293 348.002380,99.189514 342.276947,99.099541 
	C330.714752,98.917854 330.468628,99.374153 328.964172,110.889389 
	C328.858246,111.700218 328.534241,112.480255 328.386475,113.288284 
	C327.221100,119.660965 326.073975,126.036972 324.737885,133.425766 
	C333.292023,132.910248 340.841980,132.356598 348.401672,132.022263 
	C360.405121,131.491348 369.032227,121.348740 367.239227,108.544930 
z"/>
<path fill="#323E48" opacity="1.000000" stroke="none" 
	d="
M815.000000,131.999191 
	C824.119385,131.999191 832.738770,131.999191 841.435852,131.999191 
	C842.891724,138.428680 841.880127,144.106750 839.109924,149.272125 
	C838.315735,150.753021 835.457642,151.855591 833.528076,151.883224 
	C818.711670,152.095535 803.890930,151.999939 788.307190,151.999939 
	C786.350281,162.508408 784.402832,172.966263 782.343811,184.023178 
	C801.601440,184.023178 820.493103,184.023178 839.449097,184.023178 
	C841.028442,190.831879 839.114807,196.632843 836.909790,202.339935 
	C836.613525,203.106644 835.220520,203.920700 834.335693,203.920349 
	C808.533203,203.910202 782.730713,203.799637 756.928284,203.693573 
	C756.786499,203.692993 756.645447,203.528351 756.120361,203.201431 
	C758.221497,191.924103 760.380615,180.486725 762.479065,169.038223 
	C766.012512,149.760773 769.552002,130.484192 772.987366,111.189156 
	C773.852417,106.330917 775.091553,101.353844 774.771362,96.523346 
	C774.464844,91.899117 772.354370,87.394470 770.902771,82.373886 
	C799.604004,82.373886 827.828613,82.373886 856.545776,82.373886 
	C857.990234,88.785042 856.022034,94.918282 853.816101,100.866684 
	C853.385925,102.026810 850.598083,102.890015 848.887634,102.907646 
	C833.731079,103.063797 818.572327,102.998421 803.414185,102.998451 
	C801.595520,102.998451 799.776855,102.998451 797.383606,102.998451 
	C795.605591,112.468277 793.858154,121.775444 791.938660,131.999191 
	C799.706787,131.999191 807.103394,131.999191 815.000000,131.999191 
z"/>
<path fill="#323E48" opacity="1.000000" stroke="none" 
	d="
M1178.000000,153.000778 
	C1175.393921,167.187180 1172.920288,180.964935 1170.054321,194.660583 
	C1169.637695,196.651413 1167.707764,199.106354 1165.860107,199.890747 
	C1153.404053,205.178345 1140.383301,207.539825 1126.766479,207.174194 
	C1118.335205,206.947784 1110.064453,206.148621 1102.810547,201.806396 
	C1088.739014,193.382980 1085.208984,181.984909 1086.232544,166.688049 
	C1086.986450,155.418747 1090.573975,144.653809 1097.751709,135.485794 
	C1108.827515,121.338600 1122.972290,112.694801 1141.222046,112.096703 
	C1148.250000,111.866379 1155.313721,112.724136 1162.641846,113.100555 
	C1163.991943,106.036919 1165.369873,98.440407 1166.960327,90.888649 
	C1167.223511,89.639198 1168.196655,87.867577 1169.213623,87.557640 
	C1175.834717,85.539711 1182.554932,83.845650 1189.257446,82.101501 
	C1189.636841,82.002739 1190.144409,82.397034 1190.991699,82.708763 
	C1186.659424,106.014656 1182.332764,129.290192 1178.000000,153.000778 
M1154.026489,158.692184 
	C1155.557861,150.967361 1157.089111,143.242538 1158.598633,135.627167 
	C1150.485352,130.056686 1142.122314,130.337158 1133.570068,132.746124 
	C1120.902100,136.314392 1111.213013,148.063980 1109.853882,161.591965 
	C1108.460938,175.455414 1114.296265,182.606064 1121.991211,185.382797 
	C1130.564453,188.476440 1139.281250,187.583328 1147.815552,184.838547 
	C1148.691162,184.556931 1149.689697,183.348099 1149.869995,182.421295 
	C1151.350220,174.821732 1152.649780,167.186981 1154.026489,158.692184 
z"/>
<path fill="#323E48" opacity="1.000000" stroke="none" 
	d="
M444.590332,132.070160 
	C433.239471,129.753021 423.377075,132.968399 413.677307,137.658127 
	C412.121216,138.410492 408.802216,138.144257 407.871796,137.032227 
	C405.739777,134.484055 404.190155,131.240845 403.215912,128.033264 
	C402.822540,126.738152 404.094238,124.119408 405.381622,123.255157 
	C422.945312,111.464294 441.974518,108.615837 462.090363,115.186943 
	C472.279572,118.515373 479.781525,132.485535 477.849030,142.968674 
	C474.865479,159.153610 471.780731,175.323074 469.098053,191.558426 
	C468.280975,196.503342 466.303223,199.204849 461.389618,200.935272 
	C446.601532,206.143112 431.380707,208.235779 415.957764,206.720871 
	C409.354431,206.072266 402.240723,203.586456 396.771118,199.861664 
	C384.560791,191.546371 388.037323,172.167114 396.895691,162.670944 
	C405.367554,153.589127 416.323090,149.449768 428.436371,149.165451 
	C435.968323,148.988663 443.576172,150.168655 451.070648,151.276428 
	C453.756653,151.673447 454.680420,151.397491 455.015106,148.747849 
	C456.215179,139.246460 453.909790,135.338928 444.590332,132.070160 
M451.449097,176.095749 
	C452.896027,168.580017 452.914246,168.500763 445.802338,166.866623 
	C443.098267,166.245300 440.278351,166.146912 437.529938,165.696045 
	C430.740967,164.582336 424.059174,165.577637 419.007629,169.991791 
	C416.303009,172.355194 414.513702,177.036606 414.383240,180.744858 
	C414.229736,185.108109 417.959076,188.486313 422.405060,188.792221 
	C429.388214,189.272705 436.441681,188.913284 443.457397,188.674973 
	C447.996063,188.520813 450.558502,186.018280 450.778473,181.340042 
	C450.848297,179.854462 451.019196,178.373657 451.449097,176.095749 
z"/>
<path fill="#323E48" opacity="1.000000" stroke="none" 
	d="
M1057.746826,135.264374 
	C1045.917480,127.958031 1034.531372,130.860870 1023.400818,135.933868 
	C1015.336304,139.609467 1011.250427,137.966736 1009.255676,129.357056 
	C1008.578003,126.432152 1008.914673,124.145447 1012.028320,122.276878 
	C1030.404175,111.248970 1049.657715,107.825745 1069.868286,116.095642 
	C1079.459229,120.020126 1085.035278,130.646057 1083.440552,140.855026 
	C1080.596924,159.060379 1077.261475,177.189850 1073.991821,195.325851 
	C1073.741577,196.713348 1072.666138,198.623383 1071.502686,199.074677 
	C1052.827881,206.318146 1033.607422,209.755341 1013.745239,205.290466 
	C993.942322,200.838943 990.797302,183.032059 999.140198,167.938629 
	C1005.073425,157.204651 1015.299744,152.253647 1026.947998,150.018814 
	C1037.851562,147.926834 1048.656616,148.636063 1059.229004,151.803818 
	C1062.195679,146.440842 1061.679565,140.081009 1057.746826,135.264374 
M1056.993652,178.429245 
	C1057.480957,175.242493 1057.968140,172.055725 1058.540161,168.313904 
	C1053.459961,167.170563 1048.690674,165.232315 1043.928833,165.250381 
	C1038.315186,165.271667 1032.398071,166.186066 1027.189575,168.203156 
	C1022.437073,170.043625 1019.468689,174.706100 1020.127930,180.215469 
	C1020.787842,185.731125 1024.906372,188.429932 1030.048218,188.913132 
	C1034.881958,189.367401 1039.808350,189.263275 1044.665161,188.953781 
	C1054.312866,188.339005 1054.459351,188.088394 1056.993652,178.429245 
z"/>
<path fill="#323E48" opacity="1.000000" stroke="none" 
	d="
M740.278442,187.218811 
	C730.777161,197.849548 719.326172,204.688400 705.600586,206.509094 
	C690.914734,208.457153 676.715149,207.092438 665.688660,195.215195 
	C660.393250,189.511261 657.700134,182.575089 657.092712,175.091217 
	C654.686523,145.445053 672.180176,119.817513 700.564209,112.760078 
	C714.414124,109.316437 727.764343,110.180794 740.018250,118.423729 
	C748.973206,124.447525 752.948669,133.340759 753.923706,143.588287 
	C755.466980,159.807510 750.958374,174.346893 740.278442,187.218811 
M698.704834,187.806580 
	C704.208618,186.277847 710.320801,185.791138 715.091187,183.006180 
	C725.426331,176.972626 730.084961,167.448608 731.384827,155.192551 
	C733.106079,138.963104 720.387268,127.351601 704.553955,131.617126 
	C690.809998,135.319794 680.876160,146.951370 679.769043,162.615341 
	C678.787048,176.508926 684.694031,186.121124 698.704834,187.806580 
z"/>
<path fill="#323E48" opacity="1.000000" stroke="none" 
	d="
M561.917236,116.960648 
	C574.207458,124.447311 575.430359,136.138321 573.651367,148.146103 
	C570.998169,166.055344 567.315918,183.814621 563.870483,201.598770 
	C563.620667,202.888657 561.786865,204.771439 560.610291,204.831757 
	C554.329468,205.153748 548.023376,204.983505 540.826111,204.983505 
	C541.753479,199.346771 542.506592,194.236267 543.446411,189.160324 
	C545.904968,175.881454 548.959839,162.687027 550.759888,149.321945 
	C551.838989,141.310165 549.025879,133.764679 537.738525,132.172379 
	C529.707031,131.039368 521.677063,132.315887 514.661743,136.287430 
	C512.529785,137.494385 511.685760,141.776810 511.116516,144.812790 
	C507.596252,163.586792 504.374939,182.416824 500.862061,201.192261 
	C500.599274,202.596725 498.892731,204.744308 497.762726,204.805710 
	C491.337158,205.154999 484.882782,204.974976 477.742981,204.974976 
	C483.599640,173.208633 489.315186,142.207794 495.134064,110.646248 
	C497.897705,111.387062 500.021423,111.687294 501.917297,112.511627 
	C509.675415,115.884933 517.261169,114.101891 525.098328,112.582581 
	C537.586609,110.161636 550.009827,110.323143 561.917236,116.960648 
z"/>
<path fill="#323E48" opacity="1.000000" stroke="none" 
	d="
M868.254883,120.211830 
	C876.844177,114.226074 886.134277,112.470833 896.131226,111.783508 
	C907.408020,111.008194 917.642090,113.110275 927.567017,118.172974 
	C930.833191,119.839020 931.766113,121.641052 929.655518,124.726143 
	C927.699036,127.586052 925.956909,130.627487 923.727173,133.255463 
	C921.674683,135.674713 919.305359,136.336960 915.898315,134.590286 
	C906.299561,129.669373 896.017822,128.513580 885.498230,131.082016 
	C883.341492,131.608597 880.943604,132.747955 879.515625,134.363754 
	C874.881409,139.607193 876.915466,145.005798 884.179626,146.860748 
	C890.404602,148.450363 896.784546,149.439117 902.996277,151.072433 
	C906.631226,152.028214 910.231628,153.416321 913.569275,155.146667 
	C925.100220,161.124557 925.494446,174.179962 919.634644,186.624115 
	C915.112122,196.228317 906.791992,202.094437 897.005066,204.667603 
	C883.548401,208.205597 869.677917,209.514343 856.219543,204.083786 
	C852.125305,202.431732 848.198120,200.182129 844.580322,197.654007 
	C843.601562,196.970062 843.221802,193.739365 843.969360,192.588715 
	C846.290222,189.016525 849.109497,185.712845 852.077393,182.634811 
	C854.232300,180.400024 856.782715,180.948303 859.241516,182.748138 
	C869.106323,189.969116 880.233154,190.534683 891.490356,187.707397 
	C894.537964,186.941956 897.565308,183.704193 899.333313,180.822784 
	C901.694519,176.974838 900.195435,172.980774 895.880066,171.589966 
	C888.697205,169.274979 881.209167,167.925171 873.903687,165.967178 
	C865.099487,163.607513 857.221375,159.897614 855.130188,149.814819 
	C852.945312,139.279968 858.672729,126.488632 868.254883,120.211830 
z"/>
<path fill="#323E48" opacity="1.000000" stroke="none" 
	d="
M637.047058,204.098282 
	C621.294800,208.839737 606.235840,209.087799 592.276489,200.030991 
	C583.627441,194.419495 579.721497,185.828003 578.990051,175.665695 
	C577.895203,160.454971 580.460510,146.146210 590.126892,133.918839 
	C599.487000,122.078972 611.459229,114.498558 626.653381,111.879395 
	C640.745605,109.450188 653.223694,112.230980 665.239380,121.704559 
	C662.520874,125.271263 660.062073,129.125381 656.983276,132.395889 
	C651.806641,137.894958 651.372681,137.699539 645.045105,134.050278 
	C636.460327,129.099167 627.763611,130.138107 619.352173,134.359360 
	C604.035706,142.045853 599.331177,160.645187 603.063293,174.433502 
	C606.036987,185.420181 616.842346,189.467316 626.722229,187.437637 
	C632.730591,186.203308 638.395813,183.298553 645.103271,180.815369 
	C644.549561,180.454529 645.151794,180.735870 645.616272,181.166031 
	C655.723694,190.526398 654.659119,197.033432 642.126709,202.393723 
	C640.610413,203.042252 639.003174,203.478256 637.047058,204.098282 
z"/>
<path fill="#323E48" opacity="1.000000" stroke="none" 
	d="
M938.020874,159.133514 
	C940.691467,144.616348 943.342773,130.533096 946.004700,116.451866 
	C946.983704,111.273087 947.888062,106.076355 949.057373,100.940353 
	C949.320312,99.785149 950.354492,98.227684 951.363281,97.913391 
	C958.226685,95.775009 965.178284,93.919815 972.648560,91.819389 
	C971.268188,99.674805 969.999756,106.893326 968.590820,114.911530 
	C980.028442,114.911530 990.743408,114.911530 1002.822266,114.911530 
	C1001.402161,121.217987 1000.403809,126.644974 998.810730,131.891373 
	C998.490662,132.945480 995.923706,133.868210 994.370300,133.904907 
	C986.047058,134.101456 977.713562,134.132324 969.390381,133.935318 
	C965.865601,133.851898 964.461975,135.050201 963.915588,138.608170 
	C962.366455,148.696899 960.377197,158.717560 958.608215,168.773300 
	C958.098022,171.673294 957.331970,174.612183 957.408203,177.514221 
	C957.574524,183.848892 962.376831,188.300476 969.022217,187.557251 
	C973.452759,187.061752 977.888000,185.339432 981.973877,183.425049 
	C985.350281,181.843079 987.284058,181.881989 989.221680,185.341766 
	C992.933716,191.969833 994.517639,197.805496 985.148376,202.073044 
	C973.807617,207.238586 962.253540,208.521057 950.326965,205.559601 
	C938.483887,202.618851 932.177612,191.583191 934.641602,179.535095 
	C935.993042,172.926529 936.898926,166.226822 938.020874,159.133514 
z"/>
<path fill="#323E48" opacity="1.000000" stroke="none" 
	d="
M1220.956055,226.611694 
	C1221.832031,231.027496 1223.878662,235.084991 1220.359497,239.207642 
	C1217.022461,243.116867 1212.910156,244.695770 1208.002197,243.837204 
	C1201.850708,242.761093 1199.807129,237.854813 1203.086304,232.440628 
	C1204.104614,230.759415 1205.339478,229.209427 1206.475342,227.599472 
	C1203.781494,220.374130 1207.900513,213.210800 1215.307983,213.197815 
	C1218.085205,213.192932 1222.108154,214.542999 1223.349243,216.606689 
	C1225.130615,219.568710 1224.794312,223.727066 1220.956055,226.611694 
M1213.908569,237.894821 
	C1215.007812,236.608322 1216.106934,235.321808 1217.617188,233.554214 
	C1215.105103,232.213196 1213.278198,231.237961 1210.536987,229.774643 
	C1209.521240,232.285995 1208.672241,234.385132 1207.823364,236.484268 
	C1209.590454,236.982117 1211.357544,237.479980 1213.908569,237.894821 
M1211.924561,220.282593 
	C1212.355225,221.544922 1212.471436,223.138412 1213.328247,223.952118 
	C1213.890625,224.486206 1215.939575,224.326004 1216.581055,223.707520 
	C1217.617310,222.708527 1218.976807,220.399643 1218.563477,219.828522 
	C1216.812866,217.409958 1214.429077,217.707916 1211.924561,220.282593 
z"/>
<path fill="#323E48" opacity="1.000000" stroke="none" 
	d="
M1064.031982,231.320984 
	C1066.798462,225.257462 1070.869019,221.713455 1077.570312,221.979233 
	C1083.184326,222.201859 1080.978760,217.062790 1082.692871,214.257812 
	C1084.126465,214.257812 1085.710449,214.257812 1088.197388,214.257812 
	C1086.658691,221.896027 1085.331909,229.228195 1083.641846,236.475632 
	C1083.036255,239.072342 1083.521240,243.035660 1079.190552,243.007980 
	C1074.722778,242.979431 1069.766235,243.572617 1065.935791,241.856979 
	C1062.386108,240.267151 1062.271362,235.596664 1064.031982,231.320984 
M1069.826172,232.478180 
	C1070.458496,234.569870 1070.578247,237.149261 1071.923096,238.562851 
	C1072.681274,239.359818 1076.922363,238.581436 1077.078613,237.919067 
	C1077.857178,234.618729 1077.801025,231.121445 1078.038574,227.693466 
	C1075.571533,228.780792 1073.097900,229.853958 1070.647095,230.976639 
	C1070.393677,231.092682 1070.275635,231.503662 1069.826172,232.478180 
z"/>
<path fill="#323E48" opacity="1.000000" stroke="none" 
	d="
M1148.086914,218.316406 
	C1148.961182,214.241791 1150.973633,212.913879 1154.666260,214.628342 
	C1153.101685,222.859055 1151.545532,231.080948 1149.963379,239.297836 
	C1149.842773,239.923920 1149.650635,240.590042 1149.300903,241.109116 
	C1147.589478,243.649918 1139.305298,245.153214 1135.241943,243.577560 
	C1131.336182,242.063049 1129.793335,239.038635 1129.989014,234.924316 
	C1130.358521,227.156128 1135.471436,222.183578 1143.440430,222.010788 
	C1145.757324,221.960571 1148.397827,222.491592 1148.086914,218.316406 
M1141.463013,238.989838 
	C1144.120605,237.652832 1146.921143,230.422195 1145.494751,228.313385 
	C1145.092529,227.718643 1144.226074,227.245819 1143.495850,227.098831 
	C1140.595947,226.515244 1136.417847,230.002350 1135.793213,233.443375 
	C1135.091797,237.306641 1137.044312,238.881683 1141.463013,238.989838 
z"/>
<path fill="#323E48" opacity="1.000000" stroke="none" 
	d="
M1234.259888,214.999298 
	C1238.528931,214.998947 1242.333862,214.998947 1246.555542,214.998947 
	C1246.555542,217.029541 1246.555542,218.712906 1246.555542,220.253937 
	C1242.745972,222.828644 1236.924072,218.263306 1233.607544,224.128479 
	C1234.803345,224.552475 1235.379272,224.916748 1235.968506,224.939789 
	C1240.027100,225.098434 1244.277100,225.043640 1244.960938,230.475250 
	C1245.722534,236.524078 1242.626709,242.446960 1237.563721,243.551010 
	C1234.270020,244.269272 1230.636841,243.905594 1227.245361,243.411575 
	C1226.228394,243.263428 1225.513062,241.043869 1224.659546,239.773285 
	C1226.251343,239.098114 1228.228882,237.467682 1229.363281,237.925568 
	C1232.871460,239.341537 1235.900879,239.732590 1238.061523,236.214600 
	C1238.810913,234.994553 1239.022949,232.906235 1238.492798,231.622360 
	C1238.122192,230.725296 1236.069580,230.090927 1234.774414,230.101624 
	C1232.401733,230.121201 1230.033691,230.704361 1227.058716,231.141388 
	C1228.101685,226.263626 1229.232300,222.165344 1229.781250,217.990585 
	C1230.146362,215.214508 1231.561279,214.789841 1234.259888,214.999298 
z"/>
<path fill="#323E48" opacity="1.000000" stroke="none" 
	d="
M1264.786377,221.000122 
	C1261.512573,221.680954 1257.326294,219.148499 1255.860962,224.405411 
	C1256.981812,224.675354 1257.598999,224.913589 1258.230713,224.962173 
	C1264.267212,225.426315 1267.794678,227.792053 1267.903809,231.490677 
	C1268.050293,236.448425 1263.297485,243.365692 1258.740723,243.800079 
	C1254.789795,244.176697 1250.737549,243.489914 1246.040771,243.235855 
	C1247.397705,238.647217 1248.370117,236.179764 1252.800171,238.204391 
	C1254.357544,238.916107 1257.012695,238.937454 1258.323364,238.041092 
	C1259.939941,236.935562 1260.676758,234.543549 1261.793701,232.707428 
	C1260.001953,231.808426 1258.284302,230.447372 1256.396851,230.143982 
	C1254.607300,229.856339 1252.639648,230.676910 1249.714966,231.192734 
	C1250.668213,225.830078 1251.406250,221.207581 1252.394897,216.639297 
	C1252.537720,215.979187 1253.871094,215.153214 1254.675049,215.129242 
	C1259.439209,214.987244 1264.209717,215.059158 1269.307983,215.059158 
	C1269.166992,218.487885 1269.672729,221.489532 1264.786377,221.000122 
z"/>
<path fill="#323E48" opacity="1.000000" stroke="none" 
	d="
M1092.094849,243.393066 
	C1087.181396,238.753326 1086.524170,232.874176 1089.962891,227.104553 
	C1092.448242,222.934433 1099.485352,220.583023 1104.533691,222.319565 
	C1109.199219,223.924423 1109.176147,227.825699 1108.974487,231.753265 
	C1108.754395,236.041412 1105.457642,234.860718 1103.016968,234.968643 
	C1100.041138,235.100204 1097.055298,234.999924 1094.024048,234.999924 
	C1095.125122,239.821396 1096.880615,240.196411 1103.829590,237.309067 
	C1106.684814,240.921860 1106.731323,241.818054 1102.639648,242.978836 
	C1099.433472,243.888443 1095.849121,243.464798 1092.094849,243.393066 
z"/>
<path fill="#323E48" opacity="1.000000" stroke="none" 
	d="
M1160.452515,235.759827 
	C1162.010986,239.810287 1164.684326,239.307037 1167.827881,238.185364 
	C1168.940796,237.788239 1170.489258,238.611801 1171.838867,238.878113 
	C1171.092285,240.141708 1170.628418,242.111313 1169.548828,242.543869 
	C1165.370483,244.217941 1160.953979,245.494156 1156.985962,241.924316 
	C1153.167236,238.488800 1153.610107,234.131195 1155.203003,230.022629 
	C1156.985352,225.425354 1160.503906,222.451141 1165.647949,222.022141 
	C1173.142944,221.397110 1176.772461,224.607971 1175.985474,230.967453 
	C1175.653687,233.648514 1174.554810,235.140488 1171.521606,235.053146 
	C1167.887085,234.948502 1164.240723,235.259109 1160.452515,235.759827 
z"/>
<path fill="#323E48" opacity="1.000000" stroke="none" 
	d="
M1112.220459,232.696533 
	C1110.615601,228.212708 1113.329346,222.789429 1117.462769,222.145401 
	C1120.215576,221.716492 1123.131104,221.842194 1125.898682,222.241058 
	C1126.987671,222.398026 1127.872192,223.973877 1128.849854,224.903564 
	C1127.514648,225.740646 1126.261230,227.062958 1124.825684,227.305405 
	C1122.445190,227.707413 1119.947266,227.414795 1117.498901,227.414795 
	C1117.441895,227.943253 1117.384888,228.471710 1117.327881,229.000168 
	C1119.097656,229.601898 1121.086182,229.880356 1122.579468,230.890778 
	C1124.279541,232.041183 1126.702515,233.837891 1126.711548,235.366196 
	C1126.724854,237.596466 1125.454468,240.677292 1123.691650,241.914368 
	C1118.757935,245.376633 1113.415894,244.853394 1107.895630,241.215927 
	C1108.933838,239.921997 1109.902710,238.714523 1110.484619,237.989273 
	C1114.206665,238.279480 1117.375366,238.526535 1120.543945,238.773605 
	C1120.687866,238.124191 1120.831665,237.474777 1120.975464,236.825378 
	C1118.148315,235.539597 1115.321289,234.253830 1112.220459,232.696533 
z"/>
<path fill="#323E48" opacity="1.000000" stroke="none" 
	d="
M1190.835938,223.561417 
	C1187.346802,220.028046 1187.384399,218.905289 1191.221802,217.464020 
	C1194.471680,216.243439 1197.900024,215.498245 1201.816406,214.380890 
	C1200.038818,223.510895 1198.438232,231.394424 1196.991577,239.306076 
	C1196.281128,243.191376 1193.900635,243.486313 1190.337646,242.559219 
	C1191.412109,237.312561 1192.477173,232.082169 1193.556763,226.854767 
	C1193.970093,224.853409 1194.877075,222.540466 1190.835938,223.561417 
z"/>
<path fill="#D70132" opacity="1.000000" stroke="none" 
	d="
M91.913536,89.514565 
	C90.404320,89.893661 88.806114,90.068657 87.399117,90.682182 
	C62.322243,101.617050 37.269928,112.608238 12.206520,123.574043 
	C10.724339,124.222534 9.193155,124.759026 7.264312,125.511711 
	C7.264312,85.851135 7.264312,46.660686 7.264312,7.217782 
	C85.943169,7.217782 164.545685,7.217782 243.874527,7.217782 
	C243.874527,35.208130 243.874527,63.286327 243.476929,91.674927 
	C220.724503,73.816605 198.395981,55.615364 175.995743,37.502804 
	C170.626938,33.161659 165.019653,29.115459 159.151398,24.977861 
	C146.373871,38.291939 132.231323,49.171722 115.075790,55.536972 
	C107.372070,58.395294 99.330605,60.343319 91.246613,62.763008 
	C91.246613,71.029350 91.246613,79.500900 91.146133,88.335922 
	C91.336617,88.981567 91.627579,89.263748 91.912979,89.550499 
	C91.907433,89.555077 91.913536,89.514565 91.913536,89.514565 
z"/>
<path fill="#EE811F" opacity="1.000000" stroke="none" 
	d="
M159.522064,24.933607 
	C165.019653,29.115459 170.626938,33.161659 175.995743,37.502804 
	C198.395981,55.615364 220.724503,73.816605 243.376648,92.154602 
	C243.753555,107.471909 243.882156,122.619865 243.901077,137.767960 
	C243.928329,159.584946 243.875854,181.402054 243.294220,203.692200 
	C214.964264,204.104553 187.197495,204.043793 159.370728,203.519333 
	C159.288177,144.836227 159.263992,86.616837 159.254730,28.397442 
	C159.254547,27.242844 159.429047,26.088217 159.522064,24.933607 
z"/>
<path fill="#0659A1" opacity="1.000000" stroke="none" 
	d="
M159.430710,203.983047 
	C187.197495,204.043793 214.964264,204.104553 243.173370,204.155914 
	C243.615677,217.114731 243.615677,230.082962 243.615677,243.454224 
	C164.947952,243.454224 86.186455,243.454224 7.011641,243.454224 
	C7.011641,230.755920 6.999531,218.149796 7.059546,205.544022 
	C7.061759,205.079391 7.769000,204.618149 9.030048,204.134079 
	C37.048508,204.067368 64.184601,204.021912 91.762444,204.061874 
	C114.613029,204.092545 137.021866,204.037796 159.430710,203.983047 
z"/>
<path fill="#FFFFFF" opacity="1.000000" stroke="none" 
	d="
M159.370728,203.519333 
	C137.021866,204.037796 114.613029,204.092545 91.803040,203.595566 
	C91.307098,191.820557 91.212303,180.597275 91.285858,169.031555 
	C92.643074,167.725189 93.696121,166.464905 95.043701,165.847351 
	C101.808868,162.747055 108.700874,159.920044 115.424896,156.736359 
	C116.798843,156.085846 118.534782,154.353638 118.586052,153.059891 
	C118.885391,145.507050 118.732803,137.936325 118.732803,129.402222 
	C109.263512,133.626724 100.571854,137.504288 91.755478,140.965607 
	C91.602318,132.351944 91.573883,124.154541 91.545441,115.957138 
	C91.660980,115.826698 91.761421,115.685524 92.241692,115.260559 
	C100.249809,111.676140 107.886734,108.417328 115.452065,104.999992 
	C116.667114,104.451134 118.438560,103.220909 118.467590,102.260765 
	C118.710312,94.231789 118.605537,86.192307 118.605537,77.632431 
	C109.634758,81.420975 101.557426,84.832191 93.111145,88.169891 
	C92.243668,88.055061 91.745140,88.013756 91.246613,87.972458 
	C91.246613,79.500900 91.246613,71.029350 91.246613,62.763008 
	C99.330605,60.343319 107.372070,58.395294 115.075790,55.536972 
	C132.231323,49.171722 146.373871,38.291939 159.151398,24.977859 
	C159.429047,26.088217 159.254547,27.242844 159.254730,28.397442 
	C159.263992,86.616837 159.288177,144.836227 159.370728,203.519333 
z"/>
<path fill="#EE811F" opacity="1.000000" stroke="none" 
	d="
M91.141739,115.974419 
	C91.573883,124.154541 91.602318,132.351944 91.754822,141.011780 
	C91.878883,141.474213 91.801132,141.639450 91.801132,141.639450 
	C75.025536,148.865067 58.237228,156.061371 41.478806,163.326599 
	C30.230486,168.203049 19.024523,173.177185 6.973324,178.470566 
	C6.973324,169.880890 6.893602,161.997543 7.081316,154.120605 
	C7.103061,153.208145 8.437585,151.940140 9.452245,151.494644 
	C36.524372,139.607635 63.634418,127.806999 91.141739,115.974419 
z"/>
<path fill="#EE811F" opacity="1.000000" stroke="none" 
	d="
M91.117500,169.373993 
	C91.212303,180.597275 91.307098,191.820557 91.361298,203.510147 
	C64.184601,204.021912 37.048508,204.067368 9.445948,204.045380 
	C18.755499,199.514114 28.482065,194.937851 38.318439,190.611237 
	C55.640259,182.992065 73.029152,175.525391 90.726791,168.428314 
	C91.081581,169.032516 91.099541,169.203262 91.117500,169.373993 
z"/>
<path fill="#EE8322" opacity="1.000000" stroke="none" 
	d="
M91.285858,169.031555 
	C91.099541,169.203262 91.081581,169.032516 91.066788,168.604645 
	C91.215370,159.764069 91.360779,151.180634 91.653664,142.118317 
	C91.801132,141.639450 91.878883,141.474213 91.879539,141.428040 
	C100.571854,137.504288 109.263512,133.626724 118.732803,129.402222 
	C118.732803,137.936325 118.885391,145.507050 118.586052,153.059891 
	C118.534782,154.353638 116.798843,156.085846 115.424896,156.736359 
	C108.700874,159.920044 101.808868,162.747055 95.043701,165.847351 
	C93.696121,166.464905 92.643074,167.725189 91.285858,169.031555 
z"/>
<path fill="#EE8323" opacity="1.000000" stroke="none" 
	d="
M93.480103,88.243408 
	C101.557426,84.832191 109.634758,81.420975 118.605537,77.632431 
	C118.605537,86.192307 118.710312,94.231789 118.467590,102.260765 
	C118.438560,103.220909 116.667114,104.451134 115.452065,104.999992 
	C107.886734,108.417328 100.249809,111.676140 92.292259,115.140686 
	C91.820618,107.019081 91.693321,98.744286 91.739777,89.992035 
	C91.913536,89.514565 91.907433,89.555077 92.161415,89.315079 
	C92.770302,88.797852 93.125206,88.520630 93.480103,88.243408 
z"/>
<path fill="#000000" opacity="1.000000" stroke="none" 
	d="
M1209.240479,177.527802 
	C1204.578491,164.872437 1206.774902,153.660629 1214.275146,143.102036 
	C1221.916138,132.345398 1236.080688,129.603729 1243.954346,131.476547 
	C1255.780151,134.289429 1259.463257,145.364639 1258.803711,154.297256 
	C1258.183228,162.697830 1255.786621,170.714615 1249.901123,177.380371 
	C1239.619263,189.025497 1216.500854,192.213806 1209.240479,177.527802 
z"/>
<path fill="#000000" opacity="1.000000" stroke="none" 
	d="
M346.911469,186.132019 
	C337.304199,186.806046 328.095062,187.543915 318.873169,187.776520 
	C317.668243,187.806915 315.166107,185.043137 315.349060,183.910126 
	C317.100677,173.063324 319.300934,162.288971 321.571167,150.458649 
	C331.354309,151.099442 341.098694,151.263763 350.697327,152.531738 
	C357.179474,153.388016 362.504272,157.448380 362.741241,164.476379 
	C362.985504,171.721191 360.633698,178.581116 354.046051,182.912323 
	C351.998962,184.258240 349.563385,185.013260 346.911469,186.132019 
z"/>
<path fill="#000000" opacity="1.000000" stroke="none" 
	d="
M367.431152,108.900101 
	C369.032227,121.348740 360.405121,131.491348 348.401672,132.022263 
	C340.841980,132.356598 333.292023,132.910248 324.737885,133.425766 
	C326.073975,126.036972 327.221100,119.660965 328.386475,113.288284 
	C328.534241,112.480255 328.858246,111.700218 328.964172,110.889389 
	C330.468628,99.374153 330.714752,98.917854 342.276947,99.099541 
	C348.002380,99.189514 353.938324,99.591293 359.340179,101.266884 
	C362.428558,102.224869 364.635437,106.024651 367.431152,108.900101 
z"/>
<path fill="#000000" opacity="1.000000" stroke="none" 
	d="
M1154.015381,159.127548 
	C1152.649780,167.186981 1151.350220,174.821732 1149.869995,182.421295 
	C1149.689697,183.348099 1148.691162,184.556931 1147.815552,184.838547 
	C1139.281250,187.583328 1130.564453,188.476440 1121.991211,185.382797 
	C1114.296265,182.606064 1108.460938,175.455414 1109.853882,161.591965 
	C1111.213013,148.063980 1120.902100,136.314392 1133.570068,132.746124 
	C1142.122314,130.337158 1150.485352,130.056686 1158.598633,135.627167 
	C1157.089111,143.242538 1155.557861,150.967361 1154.015381,159.127548 
z"/>
<path fill="#000000" opacity="1.000000" stroke="none" 
	d="
M451.296448,176.493195 
	C451.019196,178.373657 450.848297,179.854462 450.778473,181.340042 
	C450.558502,186.018280 447.996063,188.520813 443.457397,188.674973 
	C436.441681,188.913284 429.388214,189.272705 422.405060,188.792221 
	C417.959076,188.486313 414.229736,185.108109 414.383240,180.744858 
	C414.513702,177.036606 416.303009,172.355194 419.007629,169.991791 
	C424.059174,165.577637 430.740967,164.582336 437.529938,165.696045 
	C440.278351,166.146912 443.098267,166.245300 445.802338,166.866623 
	C452.914246,168.500763 452.896027,168.580017 451.296448,176.493195 
z"/>
<path fill="#000000" opacity="1.000000" stroke="none" 
	d="
M1056.978760,178.853561 
	C1054.459351,188.088394 1054.312866,188.339005 1044.665161,188.953781 
	C1039.808350,189.263275 1034.881958,189.367401 1030.048218,188.913132 
	C1024.906372,188.429932 1020.787842,185.731125 1020.127930,180.215469 
	C1019.468689,174.706100 1022.437073,170.043625 1027.189575,168.203156 
	C1032.398071,166.186066 1038.315186,165.271667 1043.928833,165.250381 
	C1048.690674,165.232315 1053.459961,167.170563 1058.540161,168.313904 
	C1057.968140,172.055725 1057.480957,175.242493 1056.978760,178.853561 
z"/>
<path fill="#000000" opacity="1.000000" stroke="none" 
	d="
M698.327026,187.638474 
	C684.694031,186.121124 678.787048,176.508926 679.769043,162.615341 
	C680.876160,146.951370 690.809998,135.319794 704.553955,131.617126 
	C720.387268,127.351601 733.106079,138.963104 731.384827,155.192551 
	C730.084961,167.448608 725.426331,176.972626 715.091187,183.006180 
	C710.320801,185.791138 704.208618,186.277847 698.327026,187.638474 
z"/>
<path fill="#000000" opacity="1.000000" stroke="none" 
	d="
M1213.516602,237.936340 
	C1211.357544,237.479980 1209.590454,236.982117 1207.823364,236.484253 
	C1208.672241,234.385132 1209.521240,232.285995 1210.536987,229.774643 
	C1213.278198,231.237961 1215.105103,232.213196 1217.617188,233.554214 
	C1216.106934,235.321808 1215.007812,236.608322 1213.516602,237.936340 
z"/>
<path fill="#000000" opacity="1.000000" stroke="none" 
	d="
M1212.083740,219.954926 
	C1214.429077,217.707916 1216.812866,217.409958 1218.563477,219.828522 
	C1218.976807,220.399643 1217.617310,222.708527 1216.581055,223.707520 
	C1215.939575,224.326004 1213.890625,224.486206 1213.328247,223.952118 
	C1212.471436,223.138412 1212.355225,221.544922 1212.083740,219.954926 
z"/>
<path fill="#000000" opacity="1.000000" stroke="none" 
	d="
M1069.960449,232.127975 
	C1070.275635,231.503662 1070.393677,231.092682 1070.647095,230.976639 
	C1073.097900,229.853958 1075.571533,228.780792 1078.038574,227.693466 
	C1077.801025,231.121445 1077.857178,234.618729 1077.078613,237.919067 
	C1076.922363,238.581436 1072.681274,239.359818 1071.923096,238.562851 
	C1070.578247,237.149261 1070.458496,234.569870 1069.960449,232.127975 
z"/>
<path fill="#000000" opacity="1.000000" stroke="none" 
	d="
M1141.056274,238.992188 
	C1137.044312,238.881683 1135.091797,237.306641 1135.793213,233.443375 
	C1136.417847,230.002350 1140.595947,226.515244 1143.495850,227.098831 
	C1144.226074,227.245819 1145.092529,227.718643 1145.494751,228.313385 
	C1146.921143,230.422195 1144.120605,237.652832 1141.056274,238.992188 
z"/>
<path fill="#FCE8EA" opacity="1.000000" stroke="none" 
	d="
M93.111153,88.169891 
	C93.125206,88.520630 92.770302,88.797852 92.166962,89.310501 
	C91.627579,89.263748 91.336617,88.981567 91.146133,88.335922 
	C91.745140,88.013756 92.243668,88.055061 93.111153,88.169891 
z"/>
</svg>