<svg version="1.1" id="Layer_1" xmlns="http://www.w3.org/2000/svg" xmlns:xlink="http://www.w3.org/1999/xlink" x="0px" y="0px"
	 width="100%" viewBox="0 0 200 200" enable-background="new 0 0 200 200" xml:space="preserve">
<path fill="#FFFFFE" opacity="1.000000" stroke="none" 
	d="
M130.000000,201.000000 
	C86.666672,201.000000 43.833340,201.000000 1.000006,201.000000 
	C1.000004,134.333344 1.000004,67.666679 1.000002,1.000015 
	C67.666656,1.000010 134.333313,1.000010 200.999969,1.000005 
	C200.999985,67.666649 200.999985,134.333298 201.000000,200.999969 
	C177.500000,201.000000 154.000000,201.000000 130.000000,201.000000 
M76.854256,59.699646 
	C68.183098,59.699646 59.511936,59.699646 49.876461,59.699646 
	C51.566845,62.768364 52.580822,64.641411 53.624161,66.497955 
	C60.132965,78.079964 66.539536,89.721832 73.238625,101.192818 
	C74.897247,104.032906 74.836418,106.084900 73.214577,108.879906 
	C66.297211,120.801056 59.622921,132.863403 52.879036,144.884918 
	C52.035282,146.388962 51.305187,147.956757 50.165146,150.197128 
	C59.876877,150.197128 68.673668,150.197128 77.217117,150.865189 
	C73.613853,158.290268 70.010597,165.715363 66.103134,173.767303 
	C83.698486,173.767303 100.594109,173.814667 117.487930,173.662094 
	C118.629845,173.651779 120.127487,172.374146 120.835922,171.281509 
	C128.337326,159.711868 135.774307,148.098648 143.031876,136.375381 
	C143.813812,135.112289 143.979248,132.790970 143.364151,131.449585 
	C139.426834,122.863457 135.191238,114.414085 131.117676,105.309242 
	C131.097961,104.900940 131.078262,104.492630 131.533524,103.578163 
	C135.386429,95.499405 139.394989,87.488441 142.966812,79.287262 
	C143.721481,77.554459 143.619125,74.671860 142.651489,73.089752 
	C135.636566,61.620163 128.383514,50.291882 120.957848,39.083157 
	C119.998825,37.635548 117.645454,36.384399 115.889343,36.317432 
	C108.088348,36.019936 100.269638,36.186493 92.457329,36.186035 
	C83.905525,36.185539 75.353729,36.185925 65.994171,36.185925 
	C70.093582,44.329124 73.804474,51.700562 76.854256,59.699646 
z"/>
<path fill="#BF3B36" opacity="1.000000" stroke="none" 
	d="
M77.470467,150.197128 
	C68.673668,150.197128 59.876877,150.197128 50.165146,150.197128 
	C51.305187,147.956757 52.035282,146.388962 52.879036,144.884918 
	C59.622921,132.863403 66.297211,120.801056 73.214577,108.879906 
	C74.836418,106.084900 74.897247,104.032906 73.238625,101.192818 
	C66.539536,89.721832 60.132965,78.079964 53.624161,66.497955 
	C52.580822,64.641411 51.566845,62.768364 49.876461,59.699646 
	C59.511936,59.699646 68.183098,59.699646 77.520660,59.567780 
	C80.965164,59.509502 83.743256,59.583096 86.947823,59.765427 
	C92.007095,59.908592 96.658493,60.209938 101.266525,59.888836 
	C104.652084,59.652916 106.318466,61.085594 107.794884,63.848953 
	C111.612221,70.993752 115.595360,78.053307 119.659920,85.061287 
	C121.681549,88.546928 124.027344,91.844551 126.252205,95.567360 
	C127.871460,98.633102 129.464996,101.358711 131.058548,104.084328 
	C131.078262,104.492630 131.097961,104.900940 130.762970,105.744026 
	C129.009583,109.044418 127.610916,111.910034 125.837379,114.823608 
	C119.718071,124.975746 113.810631,134.992508 108.319290,145.232422 
	C106.444725,148.727997 104.445145,150.431152 100.296303,150.117950 
	C95.683792,149.769745 91.011162,150.218033 85.914368,150.212067 
	C82.799507,150.135406 80.134987,150.166275 77.470467,150.197128 
M108.080650,83.412331 
	C106.130920,79.927505 104.313042,76.358154 102.161674,73.002609 
	C101.383194,71.788376 99.822586,70.299553 98.590996,70.273888 
	C88.185722,70.057106 77.773994,70.150192 66.595383,70.150192 
	C67.791611,72.506088 68.539619,74.114532 69.403526,75.658112 
	C74.035316,83.933907 78.534859,92.290611 83.426430,100.410721 
	C85.366936,103.631989 85.655693,106.053070 83.566216,109.403648 
	C79.169006,116.454765 75.297859,123.834923 71.242638,131.097809 
	C69.742027,133.785385 68.330742,136.522858 66.512558,139.922134 
	C77.203789,139.922134 86.987793,139.799805 96.765373,139.996796 
	C99.692192,140.055756 101.270767,138.986572 102.611267,136.542130 
	C107.812004,127.058548 113.291100,117.724922 118.335098,108.160667 
	C119.208878,106.503830 119.195427,103.644951 118.357872,101.951599 
	C115.337120,95.844261 111.789001,89.997757 108.080650,83.412331 
z"/>
<path fill="#2B2A28" opacity="1.000000" stroke="none" 
	d="
M77.343796,150.531158 
	C80.134987,150.166275 82.799507,150.135406 85.819542,150.549835 
	C84.068069,155.429382 81.961090,159.863632 79.578590,164.877716 
	C91.301186,164.877716 102.253181,164.962769 113.199997,164.763168 
	C114.475960,164.739899 116.138489,163.416077 116.917488,162.231888 
	C122.678581,153.474197 128.322906,144.637131 133.825821,135.715179 
	C134.559708,134.525314 134.918930,132.435272 134.381851,131.244720 
	C131.863556,125.662598 128.971085,120.249268 126.212250,114.775650 
	C127.610916,111.910034 129.009583,109.044418 130.731003,106.049271 
	C135.191238,114.414085 139.426834,122.863457 143.364151,131.449585 
	C143.979248,132.790970 143.813812,135.112289 143.031876,136.375381 
	C135.774307,148.098648 128.337326,159.711868 120.835922,171.281509 
	C120.127487,172.374146 118.629845,173.651779 117.487930,173.662094 
	C100.594109,173.814667 83.698486,173.767303 66.103134,173.767303 
	C70.010597,165.715363 73.613853,158.290268 77.343796,150.531158 
z"/>
<path fill="#2B2A28" opacity="1.000000" stroke="none" 
	d="
M131.296036,103.831245 
	C129.464996,101.358711 127.871460,98.633102 126.507614,95.339523 
	C129.186920,89.704605 131.812302,84.711029 133.976593,79.525024 
	C134.607468,78.013336 134.562042,75.564438 133.737503,74.206444 
	C128.317108,65.279396 122.638023,56.507622 116.928131,47.760395 
	C116.205391,46.653183 114.823433,45.244949 113.725983,45.226612 
	C102.550201,45.039818 91.370079,45.112423 79.506027,45.112423 
	C82.099037,50.488289 84.310196,55.072491 86.521355,59.656693 
	C83.743256,59.583096 80.965164,59.509502 77.851219,59.253952 
	C73.804474,51.700562 70.093582,44.329124 65.994171,36.185925 
	C75.353729,36.185925 83.905525,36.185539 92.457329,36.186035 
	C100.269638,36.186493 108.088348,36.019936 115.889343,36.317432 
	C117.645454,36.384399 119.998825,37.635548 120.957848,39.083157 
	C128.383514,50.291882 135.636566,61.620163 142.651489,73.089752 
	C143.619125,74.671860 143.721481,77.554459 142.966812,79.287262 
	C139.394989,87.488441 135.386429,95.499405 131.296036,103.831245 
z"/>
<path fill="#FEFAFA" opacity="1.000000" stroke="none" 
	d="
M108.260353,83.732536 
	C111.789001,89.997757 115.337120,95.844261 118.357872,101.951599 
	C119.195427,103.644951 119.208878,106.503830 118.335098,108.160667 
	C113.291100,117.724922 107.812004,127.058548 102.611267,136.542130 
	C101.270767,138.986572 99.692192,140.055756 96.765373,139.996796 
	C86.987793,139.799805 77.203789,139.922134 66.512558,139.922134 
	C68.330742,136.522858 69.742027,133.785385 71.242638,131.097809 
	C75.297859,123.834923 79.169006,116.454765 83.566216,109.403648 
	C85.655693,106.053070 85.366936,103.631989 83.426430,100.410721 
	C78.534859,92.290611 74.035316,83.933907 69.403526,75.658112 
	C68.539619,74.114532 67.791611,72.506088 66.595383,70.150192 
	C77.773994,70.150192 88.185722,70.057106 98.590996,70.273888 
	C99.822586,70.299553 101.383194,71.788376 102.161674,73.002609 
	C104.313042,76.358154 106.130920,79.927505 108.260353,83.732536 
z"/>
<path fill="#FBF9F9" opacity="1.000000" stroke="none" 
	d="
M86.947823,59.765427 
	C84.310196,55.072491 82.099037,50.488289 79.506027,45.112423 
	C91.370079,45.112423 102.550201,45.039818 113.725983,45.226612 
	C114.823433,45.244949 116.205391,46.653183 116.928131,47.760395 
	C122.638023,56.507622 128.317108,65.279396 133.737503,74.206444 
	C134.562042,75.564438 134.607468,78.013336 133.976593,79.525024 
	C131.812302,84.711029 129.186920,89.704605 126.481918,94.999390 
	C124.027344,91.844551 121.681549,88.546928 119.659920,85.061287 
	C115.595360,78.053307 111.612221,70.993752 107.794884,63.848953 
	C106.318466,61.085594 104.652084,59.652916 101.266525,59.888836 
	C96.658493,60.209938 92.007095,59.908592 86.947823,59.765427 
z"/>
<path fill="#FBF9F9" opacity="1.000000" stroke="none" 
	d="
M125.837387,114.823608 
	C128.971085,120.249268 131.863556,125.662598 134.381851,131.244720 
	C134.918930,132.435272 134.559708,134.525314 133.825821,135.715179 
	C128.322906,144.637131 122.678581,153.474197 116.917488,162.231888 
	C116.138489,163.416077 114.475960,164.739899 113.199997,164.763168 
	C102.253181,164.962769 91.301186,164.877716 79.578590,164.877716 
	C81.961090,159.863632 84.068069,155.429382 86.269882,150.657349 
	C91.011162,150.218033 95.683792,149.769745 100.296303,150.117950 
	C104.445145,150.431152 106.444725,148.727997 108.319290,145.232422 
	C113.810631,134.992508 119.718071,124.975746 125.837387,114.823608 
z"/>
</svg>