<svg version="1.1" id="Layer_1" xmlns="http://www.w3.org/2000/svg" xmlns:xlink="http://www.w3.org/1999/xlink" x="0px" y="0px"
	 width="100%" viewBox="0 0 896 896" enable-background="new 0 0 896 896" xml:space="preserve">
<path fill="#000000" opacity="1.000000" stroke="none" 
	d="
M390.679993,400.151306 
	C405.386841,409.812897 416.905731,422.735077 430.475861,433.196167 
	C446.720703,445.719208 464.499725,452.394409 485.499146,450.182892 
	C497.120850,448.958984 508.442444,446.790894 519.796692,444.273071 
	C531.947266,441.578674 543.895630,443.003357 555.313049,447.988220 
	C566.658875,452.941864 578.247559,453.792877 590.332642,451.238525 
	C607.028137,447.709686 623.695068,448.376007 640.255310,452.478577 
	C643.445312,453.268890 644.409668,455.088928 644.403503,458.239258 
	C644.278259,522.220459 644.230469,586.201782 644.159973,650.183105 
	C644.152893,656.571167 643.686768,657.010742 637.417725,657.011780 
	C508.956757,657.032654 380.495758,657.038147 252.034897,657.151245 
	C247.385971,657.155334 245.833710,655.345947 245.836990,650.959106 
	C245.883148,589.310120 245.839294,527.661194 245.879074,466.012268 
	C245.884033,458.340027 251.267654,453.775177 256.459320,449.364532 
	C265.105560,442.019104 274.692291,435.982330 284.769775,430.852081 
	C300.416504,422.886658 314.318024,412.391235 328.328644,401.985779 
	C346.934662,388.167389 366.512146,387.651794 386.722015,398.363983 
	C387.891602,398.983887 389.162598,399.412506 390.679993,400.151306 
M263.106476,578.500000 
	C263.118958,594.156311 263.268921,609.814148 263.086548,625.468201 
	C262.994049,633.405823 267.225189,638.614441 273.677704,641.563293 
	C286.145020,647.260986 299.060211,646.116821 311.547211,641.412354 
	C316.789917,639.437134 321.093292,635.334656 321.595581,629.305359 
	C322.188293,622.190796 321.951538,615.003357 321.973541,607.847229 
	C321.981293,605.335388 320.669678,604.408447 318.056641,604.760010 
	C312.875366,605.457153 308.311951,609.208923 307.240082,614.398743 
	C306.399689,618.467590 305.998993,622.625122 305.305267,626.726746 
	C304.030487,634.264099 298.416962,638.711731 290.914307,638.214722 
	C284.605591,637.796814 278.875153,631.462708 278.867981,624.559814 
	C278.823669,581.921387 278.829926,539.283020 278.857330,496.644592 
	C278.861481,490.178162 283.946716,483.869751 289.698639,482.930603 
	C297.272888,481.693970 302.666504,484.860809 305.669250,491.732025 
	C307.719604,496.423920 306.987549,501.225586 307.075562,506.005707 
	C307.230591,514.427368 309.237610,516.926392 317.219604,519.699829 
	C320.771820,520.934021 321.764740,519.929688 321.799652,516.557129 
	C321.858185,510.902588 321.638245,505.202393 322.279236,499.606598 
	C323.284912,490.827148 318.119141,482.366577 310.007019,479.002930 
	C300.996002,475.266510 291.643127,475.320404 282.484985,476.448608 
	C272.919922,477.626984 262.982178,485.280396 263.074066,497.553497 
	C263.273529,524.200928 263.117828,550.851013 263.106476,578.500000 
M346.883514,531.382996 
	C343.094482,536.017151 340.987427,541.112610 341.022522,547.313049 
	C341.169586,573.289612 341.019012,599.267761 341.049469,625.245239 
	C341.059692,633.940002 345.368103,639.143799 353.493896,642.426880 
	C362.085205,645.898010 370.988831,645.677612 379.574188,644.383728 
	C392.190918,642.482117 400.466309,636.791504 400.039062,621.115479 
	C399.376953,596.820862 399.864288,572.495361 399.823181,548.182983 
	C399.818970,545.693726 399.614777,543.196899 399.365326,540.717529 
	C398.691437,534.019226 394.554962,529.515259 388.766479,527.345215 
	C374.562622,522.020325 360.517578,522.029053 346.883514,531.382996 
M526.823059,524.307861 
	C518.871277,524.290894 510.958618,523.459717 503.214203,526.792419 
	C492.570801,531.372742 488.084045,537.268433 488.058655,548.696655 
	C488.000549,574.855225 487.989288,601.013916 487.968567,627.172546 
	C487.965149,631.503845 487.989929,635.835388 488.040436,640.166321 
	C488.068054,642.532959 488.925537,644.110718 491.684143,643.497498 
	C499.335083,641.796936 504.075684,636.817688 503.955872,629.513733 
	C503.611572,608.525757 503.819305,587.528564 503.815948,566.535034 
	C503.814728,559.037537 503.716675,551.537537 503.876434,544.043274 
	C503.990173,538.709900 508.186798,532.819336 512.978577,531.397644 
	C518.478027,529.765930 523.555176,530.715637 527.608215,535.105164 
	C530.947144,538.721252 531.002686,543.302795 531.008545,547.802795 
	C531.043396,574.460815 530.975098,601.118958 531.029724,627.776855 
	C531.048950,637.161987 534.868469,641.993958 543.747070,644.397095 
	C546.678650,645.190674 548.410278,643.954407 548.543091,641.060425 
	C548.671997,638.250061 548.070740,635.406433 548.196106,632.595581 
	C549.495789,603.448425 548.162048,574.308716 548.039001,545.166321 
	C548.032593,543.647705 547.584595,542.262024 547.104126,540.819885 
	C543.953430,531.363281 536.030457,527.648010 526.823059,524.307861 
M626.350403,539.635498 
	C620.770569,528.554260 611.089233,524.861389 599.414246,524.066895 
	C593.152710,523.640808 587.355164,525.181519 582.033630,527.629822 
	C573.477905,531.566101 567.558228,536.467224 567.944702,548.356140 
	C568.041809,551.343262 567.959839,554.353943 567.696411,557.330505 
	C567.364136,561.085815 568.926819,562.103516 572.438782,561.374023 
	C578.222900,560.172302 582.126343,556.096313 582.886719,550.174622 
	C583.204163,547.702393 583.354492,545.184509 583.943604,542.776123 
	C585.474426,536.517090 592.880127,530.492004 597.863220,531.246643 
	C605.139893,532.348755 610.988708,538.770691 611.140808,545.982483 
	C611.239197,550.646179 610.816833,555.342957 611.217957,559.973816 
	C612.291016,572.362122 603.752441,577.220947 593.852905,577.723145 
	C588.389160,578.000366 583.095459,578.327759 577.902100,580.739868 
	C571.404907,583.757507 566.522034,590.331360 566.622192,597.564697 
	C566.739807,606.056580 567.039673,614.555054 566.824402,623.039551 
	C566.647034,630.031128 569.467957,635.357666 574.834595,639.353149 
	C585.847839,647.552490 598.140259,645.756226 610.249390,642.997070 
	C614.574402,642.011536 618.449829,640.607483 622.689392,643.032227 
	C625.318848,644.535950 626.827332,643.323120 626.885620,640.393677 
	C626.945251,637.395630 626.893677,634.395325 626.884460,631.395996 
	C626.791687,601.071838 626.697632,570.747681 626.350403,539.635498 
M434.891327,586.500000 
	C434.870758,554.850952 434.795715,523.201843 434.879730,491.553040 
	C434.894867,485.855377 433.003723,481.476868 427.975800,478.709900 
	C425.699432,477.457184 423.308044,475.180450 420.630493,476.622711 
	C417.738922,478.180206 419.113708,481.468170 419.109497,483.949036 
	C419.023560,534.253418 419.044525,584.557983 419.044067,634.862549 
	C419.044037,636.694397 419.016632,638.526855 419.051056,640.358032 
	C419.105347,643.246155 420.578430,644.056030 423.325012,643.495239 
	C430.639435,642.001831 434.857086,637.081909 434.889893,629.476013 
	C434.950226,615.484253 434.897858,601.492004 434.891327,586.500000 
M469.688751,587.500000 
	C469.674927,574.345154 469.728699,561.189758 469.610046,548.035889 
	C469.569336,543.527405 469.168488,538.893066 465.890747,535.406433 
	C463.130341,532.470032 459.334351,529.840759 455.457581,531.001160 
	C451.744080,532.112671 453.365021,536.528442 453.350677,539.472473 
	C453.205811,569.278259 453.221466,599.084961 453.206879,628.891357 
	C453.205017,632.720581 453.238800,636.551147 453.345428,640.378662 
	C453.444977,643.952454 455.018799,645.089111 458.547516,643.714966 
	C467.178497,640.353943 469.413971,637.350525 469.574768,626.964233 
	C469.773254,614.145325 469.665894,601.321655 469.688751,587.500000 
M462.104034,515.704529 
	C464.472839,515.726562 467.607025,516.874329 467.763733,512.915527 
	C467.961060,507.929871 468.067810,502.900208 467.629181,497.941254 
	C467.196930,493.054443 460.619873,487.631165 455.884125,488.277100 
	C449.288605,489.176697 453.369110,494.622803 452.285065,497.895447 
	C452.036652,498.645325 452.273407,499.549500 452.251221,500.381714 
	C452.065216,507.366028 454.799133,512.603394 462.104034,515.704529 
z"/>
<path fill="#000000" opacity="1.000000" stroke="none" 
	d="
M566.776733,227.142212 
	C578.795227,233.798813 589.325989,241.681686 595.198486,254.055679 
	C599.368469,262.842255 600.569153,272.009857 596.181396,281.488922 
	C589.461304,296.006744 579.211609,305.949310 563.086975,308.920746 
	C551.398010,311.074738 530.071472,297.973145 530.762939,284.087036 
	C531.244080,274.424927 541.202026,267.820831 550.337952,271.279663 
	C554.677612,272.922638 558.950806,274.721527 563.038574,276.799316 
	C570.526672,280.605469 581.643738,271.472565 582.146973,263.693665 
	C582.913757,251.838470 576.259644,244.894638 567.328857,239.722336 
	C555.967773,233.142593 543.919495,233.926682 531.723816,238.036545 
	C521.180237,241.589630 512.242126,247.406219 505.172638,255.828156 
	C498.380035,263.920227 493.420441,273.087463 495.415161,284.134644 
	C497.080780,293.359070 501.767426,301.265656 508.640228,307.685181 
	C526.269287,324.151581 547.620728,329.972198 570.839600,326.372162 
	C587.851929,323.734406 600.793884,313.758881 608.805237,297.815491 
	C616.822205,281.860809 617.744019,265.058472 614.368286,248.211868 
	C611.602966,234.411713 603.565430,222.924255 593.195923,213.358124 
	C581.885620,202.924088 568.311157,196.224960 553.850281,191.660034 
	C541.214661,187.671326 527.975403,187.189392 514.766602,188.082840 
	C485.208984,190.082138 461.724762,203.158493 444.917542,227.522614 
	C435.620544,240.999725 431.848145,256.533783 431.344482,272.722534 
	C430.483887,300.384399 437.557129,326.061127 452.320343,349.450104 
	C463.072876,366.485046 477.032898,380.427124 495.369904,389.164520 
	C508.132172,395.245605 521.785034,398.380005 535.985657,399.776245 
	C564.509155,402.580719 589.791626,395.238129 612.207214,377.528595 
	C632.585205,361.428894 644.944946,339.934784 654.236389,316.185394 
	C661.109131,298.618317 661.184998,280.131866 662.677246,261.807739 
	C662.933594,258.659943 662.603760,255.462860 662.885315,252.319061 
	C663.191406,248.900864 665.270081,246.317688 668.364868,245.186569 
	C671.400940,244.076904 673.292480,246.597626 674.972534,248.642807 
	C678.746826,253.237030 680.946777,258.746582 682.267578,264.365845 
	C685.241394,277.017853 686.457947,289.592438 683.817444,302.803040 
	C679.855042,322.626923 672.158569,340.610687 660.519226,356.800446 
	C648.016602,374.191101 631.982727,387.871796 612.870667,397.769104 
	C590.998169,409.095917 567.774475,414.701385 543.150940,413.034180 
	C532.416870,412.307434 521.798340,409.954010 511.622162,406.248993 
	C494.224823,399.914795 477.654510,391.975708 462.954437,380.493256 
	C444.315308,365.933960 430.712280,347.880798 422.251678,325.582703 
	C414.820465,305.997681 414.533905,285.803680 417.918335,266.086884 
	C423.951904,230.936340 441.856384,202.185898 471.465912,181.593216 
	C481.311310,174.746002 492.620209,170.849243 504.229523,167.473129 
	C524.054810,161.707748 544.075989,161.185486 563.902588,165.158875 
	C592.102478,170.810379 614.377563,185.343109 625.712952,213.111969 
	C630.522034,224.893097 630.910156,237.467865 629.968506,249.969009 
	C627.943481,276.852997 618.740479,301.094025 601.938904,322.253204 
	C591.296936,335.655243 577.612305,345.144104 561.222595,349.782196 
	C543.550781,354.783081 525.914612,353.826019 508.358612,347.527802 
	C491.562347,341.502197 477.922455,331.785431 468.548920,316.701935 
	C457.151367,298.361481 458.818542,279.709839 468.822571,261.321838 
	C477.539093,245.300415 490.287628,233.107071 506.684753,225.591522 
	C523.990417,217.659561 542.047729,215.465836 560.126099,224.224243 
	C562.171265,225.215057 564.675354,225.248779 566.776733,227.142212 
z"/>
<path fill="#000000" opacity="1.000000" stroke="none" 
	d="
M414.993958,226.878372 
	C408.188049,241.665085 405.717041,256.982025 405.191895,272.722961 
	C405.107666,275.248047 405.990814,276.730927 408.484924,277.528290 
	C411.997650,278.651306 413.248077,281.403046 413.126282,284.937988 
	C412.723694,296.622009 413.889282,308.099884 416.414856,319.565674 
	C423.233246,350.520569 437.822784,376.027924 464.946106,393.837494 
	C480.830536,404.267487 498.442139,409.485352 516.490234,414.012604 
	C522.254211,415.458496 528.275574,416.256195 533.421082,419.590942 
	C538.355408,422.788849 538.153748,427.461182 533.134277,430.631592 
	C526.406799,434.880829 518.802917,435.346039 511.444733,434.507874 
	C467.077454,429.454193 436.160461,405.391632 416.552521,365.986206 
	C407.670135,348.135590 403.967773,329.126007 404.236542,309.159515 
	C404.335724,301.790497 404.296173,294.366852 404.379669,286.709167 
	C396.618317,291.346893 394.029327,290.844421 389.131134,282.856201 
	C382.251007,271.635803 380.973938,259.139618 381.873444,246.303665 
	C383.263611,226.466003 390.443298,209.250748 405.025055,195.395569 
	C416.080750,184.890747 428.606232,176.745712 442.555725,170.480743 
	C451.831360,166.314896 461.271576,162.721344 471.010376,160.046371 
	C478.834351,157.897339 486.970306,156.910324 494.916412,155.172699 
	C504.416718,153.095184 514.023254,152.548309 523.697266,152.635117 
	C525.879517,152.654709 528.608398,152.578384 528.721741,155.433441 
	C528.825806,158.054016 526.146179,157.958786 524.207642,158.276917 
	C510.131500,160.586868 495.986725,162.822586 482.480377,167.457764 
	C456.845276,176.255356 434.717987,189.954651 420.914490,214.384644 
	C418.710693,218.285004 416.503326,222.211441 414.993958,226.878372 
z"/>
<path fill="#000000" opacity="1.000000" stroke="none" 
	d="
M504.924622,696.826538 
	C506.318756,697.400879 507.494995,697.757690 508.317291,698.504395 
	C510.038208,700.066895 512.077637,701.850708 510.639404,704.451050 
	C509.312225,706.850647 506.881561,706.277771 504.836426,705.456238 
	C500.189972,703.589661 498.148376,704.991028 496.647980,709.915588 
	C493.201508,721.227417 491.566742,732.933655 488.441956,744.297913 
	C488.059875,745.687500 487.767303,747.238403 488.553589,748.757019 
	C490.782318,749.333008 491.143738,747.282471 492.204651,746.192810 
	C498.743256,739.477295 500.436279,730.432007 503.838318,722.202881 
	C504.530243,720.529175 505.435699,718.904846 506.474030,717.419312 
	C516.790710,702.658936 521.298767,704.713501 535.973877,712.133057 
	C540.515015,714.428894 541.945251,720.325073 540.599609,725.563110 
	C539.929443,728.171692 538.566833,730.798340 539.556580,733.908142 
	C542.590576,732.924255 543.256287,730.435974 544.130981,728.177307 
	C546.725403,721.477783 549.364990,714.822021 555.184448,710.095154 
	C558.619019,707.305481 561.916016,704.857300 566.827393,707.339661 
	C569.831360,708.857910 572.261963,707.845276 572.766113,703.869385 
	C573.776245,695.904358 576.752380,688.462769 579.394531,680.960510 
	C580.260132,678.502625 581.839722,675.523987 584.724121,675.604187 
	C588.320923,675.704041 591.797058,677.397888 594.503540,679.895874 
	C595.877563,681.164001 594.974182,682.923584 594.144470,684.488281 
	C587.218567,697.550171 584.300537,711.879944 581.108643,726.116882 
	C579.411804,733.685425 577.841003,741.279175 576.956726,749.917480 
	C581.655029,746.321899 583.981934,741.905701 585.593018,737.132568 
	C588.234802,729.305969 589.469543,720.937134 595.354797,714.468079 
	C598.626587,710.871765 601.918701,705.799805 606.705078,706.355591 
	C612.721069,707.053955 619.333984,708.350159 624.010620,713.146606 
	C627.791504,717.024475 628.559326,721.897278 627.439148,727.078735 
	C627.023560,729.001221 626.376770,730.873718 625.772095,732.990723 
	C630.342529,731.303772 633.121338,727.003540 632.720215,721.821289 
	C632.232117,715.515686 634.325439,710.817993 639.978516,707.723022 
	C647.569336,703.566956 657.515503,708.736877 658.590393,717.486084 
	C658.934204,720.284485 655.477661,724.812683 652.690796,725.214661 
	C648.763428,725.781128 646.826416,723.285461 648.257202,719.511597 
	C648.926331,717.746582 650.491516,716.080383 649.022400,713.989014 
	C644.612793,716.029907 642.916016,719.895813 644.925354,723.932312 
	C646.173035,726.438904 647.867798,728.757568 649.584534,730.989441 
	C653.858582,736.545776 655.229065,736.534058 659.802368,731.400696 
	C662.398315,728.486755 663.632507,724.807617 665.520264,721.498657 
	C666.426819,719.909546 666.975098,717.554382 669.274353,718.477417 
	C671.750977,719.471558 671.807190,722.233765 670.739624,724.090210 
	C667.862183,729.093750 665.702332,734.727295 660.739380,738.203430 
	C657.752441,740.295654 656.136780,742.677979 655.157898,746.434570 
	C652.514648,756.578735 634.858765,764.931763 627.293579,757.841675 
	C623.331116,754.128113 622.718750,750.394836 626.456848,746.313416 
	C629.767029,742.699158 633.632935,740.439819 638.730713,740.816589 
	C639.714294,740.889343 640.758545,740.770264 641.473877,739.365479 
	C640.257751,736.769348 638.921631,734.023071 636.228271,731.017761 
	C630.624390,738.809143 622.319885,743.400513 616.590881,750.766968 
	C612.010132,756.656921 604.058655,761.831970 595.272034,758.123779 
	C591.003967,756.322510 589.086853,752.429321 586.128479,748.857727 
	C583.837219,751.375244 582.019287,753.960144 579.638367,755.826965 
	C577.144531,757.782410 574.524170,760.640747 570.831543,759.211609 
	C566.760864,757.636047 564.644043,754.440369 565.355103,748.971680 
	C559.596436,754.098389 556.248901,762.955566 547.087280,758.208008 
	C540.183899,754.630798 540.452820,747.847595 541.218994,740.643921 
	C537.030457,742.675293 534.265015,745.353455 531.781799,748.488342 
	C528.355774,752.813477 524.613708,756.807434 519.012573,758.365967 
	C510.280853,760.795471 503.923553,757.531128 500.615387,748.936829 
	C500.393036,748.359253 499.923401,747.876831 499.300018,746.951111 
	C496.432098,749.968689 493.779388,752.796570 491.084442,755.583740 
	C488.943298,757.798157 486.260376,759.353455 483.295532,759.686157 
	C480.135254,760.040833 476.983307,755.796753 476.732361,751.619446 
	C475.993530,739.319336 478.930389,727.508484 481.516632,715.652710 
	C481.835144,714.192444 482.306580,712.764954 482.724121,711.327209 
	C483.848694,707.454956 483.542328,704.678711 478.372345,705.150452 
	C477.277191,705.250305 476.084106,704.760559 474.999084,704.368347 
	C473.575012,703.853699 472.007812,703.164795 472.317047,701.296753 
	C472.604309,699.561157 474.165253,699.105103 475.715668,698.872925 
	C475.880096,698.848267 476.055573,698.797241 476.211334,698.829285 
	C483.680420,700.368530 486.341858,695.837769 488.459808,689.776001 
	C490.901642,682.787109 495.059021,682.014160 500.884003,686.606750 
	C503.354980,688.554871 503.598450,690.571045 502.180603,693.111023 
	C500.674713,695.808838 501.903442,696.754578 504.924622,696.826538 
M525.199951,734.799072 
	C527.232544,729.617920 528.350403,724.294739 527.853210,718.687683 
	C527.692017,716.870056 526.986511,715.420105 525.328247,714.684631 
	C523.500671,713.874268 522.096252,714.918213 520.931946,716.184204 
	C513.761597,723.981201 511.359985,733.535278 511.357605,743.750793 
	C511.356598,748.145081 513.688538,749.336487 517.731567,747.423950 
	C522.630615,745.106628 523.593994,740.146667 525.199951,734.799072 
M607.166443,716.693970 
	C600.871155,723.962830 598.747925,732.699097 598.404724,742.008545 
	C598.329956,744.037537 597.597900,746.739868 600.358826,747.580200 
	C603.067383,748.404541 606.010986,747.738464 607.451416,745.237976 
	C612.066772,737.226318 614.946350,728.568298 614.711304,719.232910 
	C614.597656,714.717896 611.604675,713.636963 607.166443,716.693970 
M569.273621,715.391602 
	C565.927063,712.488159 563.854309,715.278259 562.395935,717.447083 
	C556.703552,725.912537 553.833984,735.351501 553.904602,745.593384 
	C553.914307,746.996460 553.713440,748.893677 555.485901,749.476196 
	C557.635559,750.182434 558.300476,748.118042 559.208191,746.852722 
	C565.802063,737.661377 568.147339,727.019775 569.273621,715.391602 
M631.926086,752.192871 
	C636.375244,753.869385 638.279297,750.701233 640.636414,747.974426 
	C636.398010,745.474304 632.198975,747.359192 631.926086,752.192871 
z"/>
<path fill="#000000" opacity="1.000000" stroke="none" 
	d="
M372.565369,707.281250 
	C375.727783,706.947693 378.173492,707.949646 380.374969,709.519470 
	C382.312439,710.901184 383.287140,712.717529 382.094452,715.129395 
	C376.780914,725.874329 375.201569,737.733582 371.852844,749.118408 
	C375.454559,748.385681 379.677734,742.638550 381.160095,737.069519 
	C383.560516,728.051514 386.218872,719.136230 392.946991,712.123291 
	C399.573181,705.216614 404.463837,704.594849 414.254852,709.622864 
	C422.119843,713.661804 424.364685,718.270508 422.800018,727.151245 
	C422.459595,729.083557 422.136536,731.018982 422.302032,733.152649 
	C425.729584,729.931641 429.317749,727.045654 428.566376,721.401611 
	C427.566589,713.891479 432.709534,707.251282 440.124817,705.881104 
	C443.932526,705.177551 449.132019,708.302734 452.013153,712.686218 
	C454.427765,716.359863 454.504944,719.629639 451.614319,723.128723 
	C449.662170,725.491699 447.467621,725.823303 444.973907,724.709106 
	C442.031372,723.394409 443.329742,721.293518 444.182495,719.242676 
	C444.865021,717.601135 445.702087,715.877136 444.675415,714.025940 
	C440.415588,715.466492 438.475739,720.397156 440.923401,724.715149 
	C442.792847,728.013062 445.370544,730.919312 447.719635,733.932312 
	C449.563873,736.297791 451.407684,735.359619 453.265808,733.796814 
	C457.237000,730.456787 458.979309,725.678528 461.400055,721.341125 
	C462.291840,719.743286 462.989166,717.487183 465.300415,718.577271 
	C467.780396,719.746948 467.465698,722.133972 466.365021,724.204651 
	C463.157288,730.239624 459.875702,736.249023 453.863556,740.078674 
	C452.518494,740.935425 451.667847,742.073486 451.367126,743.641357 
	C449.514801,753.297913 442.624176,757.764526 433.955109,760.061401 
	C427.432068,761.789612 420.817780,758.272949 419.913788,753.067627 
	C419.037506,748.021851 424.743042,741.818787 430.934540,740.972290 
	C432.995544,740.690552 435.280579,741.631836 437.401886,739.752747 
	C435.854065,736.952271 434.885925,733.822937 431.715363,731.110779 
	C426.493988,738.214478 419.157318,742.910767 413.415894,749.333740 
	C410.234680,752.892700 407.357574,756.840759 402.351318,758.303528 
	C393.564117,760.870911 387.928741,758.548035 383.539825,750.309509 
	C383.251068,749.767456 382.680725,749.375366 381.877106,748.530640 
	C379.395569,751.142212 377.266998,753.860596 374.659912,755.994202 
	C371.946045,758.215149 369.287323,760.937073 364.924713,758.855042 
	C360.294464,756.645325 359.151398,753.132446 359.999420,748.604126 
	C361.367828,741.296997 362.477356,733.923035 365.081787,726.898865 
	C365.640594,725.391846 366.022858,723.819336 365.998871,722.049988 
	C361.321320,726.186279 359.310364,731.981995 356.690582,737.259460 
	C354.125214,742.427246 352.525574,748.079346 350.572357,753.543945 
	C349.739899,755.872986 350.519775,759.384766 346.546051,759.353455 
	C342.835327,759.324158 338.694641,755.203308 338.909546,751.435181 
	C339.135559,747.472961 339.932861,743.531799 340.646698,739.611694 
	C341.711121,733.766296 343.299469,728.046875 345.142334,722.287720 
	C340.263092,726.866577 337.701813,732.821777 335.056641,738.642456 
	C332.463715,744.348083 329.841827,750.065735 328.818848,756.387695 
	C328.389038,759.043945 326.237305,759.445740 323.736023,758.590027 
	C318.228027,756.705505 316.306030,751.561035 318.324310,743.884033 
	C318.636658,742.695923 320.030945,741.667358 318.745941,739.881897 
	C314.688507,742.440430 311.087219,745.423096 308.075256,749.186646 
	C304.726593,753.370728 301.026764,756.986816 295.571472,758.604004 
	C287.541779,760.984375 277.901398,756.044922 276.157013,747.686951 
	C273.232574,733.674988 281.466522,715.326538 291.430908,708.064026 
	C296.417328,704.429626 300.463623,707.209839 304.496887,708.476990 
	C317.692047,712.622681 318.913727,716.977783 316.313660,730.784790 
	C316.113495,731.847717 314.913239,732.765198 316.124481,734.289612 
	C320.021942,731.435364 322.404327,727.366211 323.518585,723.032410 
	C324.522247,719.128662 326.195801,715.528748 327.364014,711.724426 
	C328.632935,707.592224 331.597656,706.351196 335.044586,707.948608 
	C339.274750,709.908936 340.437164,712.644165 338.735504,716.395386 
	C337.707916,718.660583 336.810486,720.984924 335.870667,723.289307 
	C335.820679,723.411865 335.920502,723.595581 335.989014,723.949463 
	C337.792999,724.014404 338.291046,722.633545 339.021423,721.380920 
	C341.545746,717.051270 344.573181,713.102234 348.035370,709.460999 
	C351.408264,705.913696 354.898956,706.718445 358.363220,709.039062 
	C361.601715,711.208374 361.798157,713.800537 359.567780,717.116760 
	C358.149109,719.226013 357.630371,721.940491 357.032440,724.615601 
	C362.393127,719.114258 365.282806,711.454224 372.565369,707.281250 
M304.354218,723.135254 
	C305.078278,719.794678 304.723816,716.166992 301.563141,714.875244 
	C298.119476,713.467896 296.570892,717.241455 294.859558,719.529541 
	C290.339081,725.573608 289.390381,732.954224 287.647217,739.990356 
	C286.934265,742.868042 286.619507,746.486389 290.360901,747.569519 
	C293.617737,748.512451 296.353241,747.047974 298.193726,743.806274 
	C301.714417,737.604980 303.160217,730.856262 304.354218,723.135254 
M395.150177,732.698364 
	C394.796295,735.998474 394.278381,739.292358 394.152283,742.601135 
	C394.080597,744.481323 393.776001,746.955872 396.338623,747.604675 
	C398.715027,748.206360 400.916382,747.433228 402.679260,745.588013 
	C404.702454,743.470215 405.698975,740.748779 406.595978,738.126709 
	C408.579102,732.329651 410.305328,726.410889 410.677765,720.243530 
	C410.827759,717.759705 409.685638,715.504089 407.305328,714.616333 
	C405.001678,713.757202 403.708435,715.844910 402.430420,717.314270 
	C398.768158,721.524719 396.622253,726.514038 395.150177,732.698364 
M436.053406,748.223022 
	C433.089722,745.210693 429.272247,746.391968 426.435852,751.476501 
	C430.792053,754.725952 433.165192,751.254822 436.053406,748.223022 
z"/>
<path fill="#000000" opacity="1.000000" stroke="none" 
	d="
M640.586365,250.434753 
	C639.263123,243.304688 639.425476,236.401627 637.158997,229.867615 
	C636.452454,227.830795 637.202332,225.782349 639.529236,225.043091 
	C641.764832,224.332855 643.289368,225.327118 644.366821,227.417603 
	C647.327209,233.161377 648.278564,239.546768 649.057983,245.700531 
	C651.255127,263.048157 651.754333,280.340179 647.899658,297.763000 
	C643.601501,317.190369 635.506958,334.505798 623.143311,349.886536 
	C612.666931,362.919403 599.576965,372.725525 584.581421,380.083374 
	C562.375183,390.979340 538.762390,392.498718 515.023010,388.693939 
	C494.452148,385.397034 476.747559,375.623444 464.051849,358.365051 
	C460.390869,353.388367 458.059967,347.649628 456.256134,341.765350 
	C455.419434,339.035950 455.102661,336.004425 457.800476,333.961151 
	C460.677612,331.782043 462.655151,334.082825 464.790619,335.683167 
	C476.777100,344.665619 489.006500,353.289093 503.164185,358.602173 
	C521.995300,365.669067 541.208374,368.839966 561.191895,363.983246 
	C595.300659,355.693573 616.694641,333.266632 630.457397,302.169678 
	C637.696594,285.812744 640.686890,268.668640 640.586365,250.434753 
z"/>
<path fill="#000000" opacity="1.000000" stroke="none" 
	d="
M592.868225,165.055145 
	C579.392212,160.547653 565.645020,158.800385 552.353760,155.167709 
	C550.383423,154.629166 548.611755,153.833237 546.904541,152.784760 
	C544.212219,151.131195 540.847534,149.587234 541.264404,145.918091 
	C541.687073,142.197861 544.631165,139.755280 548.063843,138.570984 
	C558.136597,135.095871 568.614258,133.429138 579.012207,135.998352 
	C608.484924,143.280701 629.589111,161.575439 644.288269,187.609161 
	C655.305847,207.122482 660.222229,228.279068 660.024963,250.650299 
	C660.014709,251.809372 660.023621,252.996735 659.781799,254.118820 
	C659.449036,255.662827 658.647888,256.993713 656.808044,256.936798 
	C655.009155,256.881195 654.017151,255.557663 653.924622,254.012283 
	C653.612549,248.799133 651.753906,243.948517 650.582764,238.947495 
	C644.801453,214.258560 634.472900,192.174011 613.782166,176.226105 
	C607.554993,171.426361 600.494202,168.110336 592.868225,165.055145 
z"/>
<path fill="#000000" opacity="1.000000" stroke="none" 
	d="
M237.721268,731.109619 
	C238.958008,732.287720 240.053802,733.106873 240.849915,734.153931 
	C242.769135,736.678040 242.573669,738.998108 239.294296,739.948792 
	C236.734283,740.690918 234.835144,742.211609 233.123962,743.987732 
	C231.403168,745.773926 229.569580,747.818604 230.603317,750.607727 
	C231.577835,753.237000 234.121429,754.462524 236.542892,754.586853 
	C243.539032,754.945862 250.224838,753.472229 255.415756,748.424072 
	C260.607880,743.374634 259.755707,737.792236 253.429764,734.019409 
	C249.871658,731.897522 246.228210,729.833313 242.415970,728.238342 
	C228.857468,722.565674 225.129761,708.910828 230.585510,697.372070 
	C236.387054,685.101868 250.237900,674.645996 262.345520,675.109802 
	C270.224548,675.411621 278.485168,681.717468 280.442169,689.291626 
	C281.501587,693.391907 278.650391,696.701294 276.914276,699.906982 
	C273.602966,706.021423 269.264069,711.558777 267.150360,718.344666 
	C266.126160,721.632874 263.990479,721.716309 261.360901,719.811157 
	C256.709229,716.441223 255.540085,712.065979 258.628754,706.757080 
	C260.621429,703.331970 263.356293,700.343262 265.696899,697.114258 
	C266.963440,695.367065 268.291870,693.620728 269.242188,691.700623 
	C270.184052,689.797668 269.958313,687.774597 268.385803,686.141174 
	C266.891388,684.588928 265.213898,683.921692 262.989380,684.735657 
	C252.477554,688.582153 245.848373,695.971863 243.259384,706.769836 
	C242.054886,711.793518 247.053802,717.769165 253.386398,719.937439 
	C258.080658,721.544739 262.739227,723.272644 266.772247,726.327148 
	C273.765381,731.623535 275.194305,741.787537 269.953949,748.923889 
	C261.635834,760.251404 250.461823,765.006104 236.579529,763.414673 
	C228.338043,762.469849 222.455750,758.070129 220.380615,750.039307 
	C218.607208,743.176025 222.001404,737.502014 226.603958,732.541077 
	C229.804672,729.091187 233.210098,727.435181 237.721268,731.109619 
z"/>
<path fill="#000000" opacity="1.000000" stroke="none" 
	d="
M490.654724,224.589203 
	C478.188568,231.728775 468.443298,240.977386 462.622467,253.938248 
	C458.152069,263.892120 455.956421,274.418335 455.348053,285.239838 
	C454.993378,291.547821 455.317749,297.892822 455.280975,304.220825 
	C455.272095,305.743073 455.048737,307.330963 453.234589,307.810059 
	C451.525574,308.261475 450.405823,307.263153 449.486084,305.964905 
	C448.013000,303.885590 447.088959,301.620758 446.873474,299.048737 
	C445.648956,284.434052 445.503510,269.853668 446.819366,255.203293 
	C448.992340,231.010315 470.092255,207.084869 493.207733,203.189072 
	C498.261444,202.337341 503.174530,202.753723 507.959229,204.470734 
	C510.613831,205.423355 512.619934,207.288071 512.973267,210.171722 
	C513.294128,212.790115 511.495972,214.487595 509.438324,215.758652 
	C503.621124,219.352097 497.081207,221.419754 490.654724,224.589203 
z"/>
<path fill="#000000" opacity="1.000000" stroke="none" 
	d="
M383.232300,615.988342 
	C383.235535,619.314575 383.267914,622.143860 383.234039,624.972290 
	C383.147614,632.190918 377.922119,637.818176 371.028107,638.153320 
	C363.310394,638.528564 357.051849,633.621948 356.782410,626.090210 
	C356.396454,615.302124 356.655731,604.490234 356.672943,593.688538 
	C356.695740,579.381470 356.631561,565.080261 356.119080,550.775391 
	C355.900848,544.683899 356.164490,538.527954 361.709320,533.993286 
	C365.599579,530.811768 369.833282,529.489868 374.153595,531.519043 
	C378.844421,533.722168 382.971130,537.185852 383.140167,543.108398 
	C383.330017,549.758850 383.224548,556.418091 383.227264,563.073486 
	C383.234467,580.545959 383.230682,598.018494 383.232300,615.988342 
z"/>
<path fill="#000000" opacity="1.000000" stroke="none" 
	d="
M583.726929,598.208191 
	C583.781128,589.723877 587.763855,585.587219 595.750183,584.845825 
	C599.031677,584.541260 602.344177,583.969727 605.496338,583.029358 
	C609.238892,581.912903 611.070740,583.161621 611.083679,586.851990 
	C611.129700,599.979614 611.238098,613.112671 610.913574,626.233582 
	C610.750122,632.840027 603.494690,638.286682 596.089355,638.098755 
	C589.042419,637.919922 583.870483,632.638123 583.746704,625.102478 
	C583.602051,616.297241 583.730896,607.487488 583.726929,598.208191 
z"/>
</svg>